G04*
G04 #@! TF.GenerationSoftware,Altium Limited,Altium Designer,21.2.2 (38)*
G04*
G04 Layer_Color=8421504*
%FSLAX23Y23*%
%MOIN*%
G70*
G04*
G04 #@! TF.SameCoordinates,6939E313-D8E2-45C8-8463-115B02E7E026*
G04*
G04*
G04 #@! TF.FilePolarity,Positive*
G04*
G01*
G75*
%ADD13R,0.019X0.020*%
%ADD14R,0.140X0.071*%
%ADD15R,0.079X0.152*%
%ADD16R,0.058X0.041*%
%ADD17R,0.030X0.047*%
%ADD18R,0.057X0.037*%
%ADD19R,0.022X0.071*%
%ADD20R,0.020X0.019*%
%ADD21R,0.031X0.039*%
%ADD22R,0.024X0.026*%
%ADD23R,0.014X0.006*%
%ADD24R,0.025X0.048*%
%ADD25R,0.048X0.025*%
D13*
X1310Y1460D02*
D03*
X1350D02*
D03*
X1083Y2731D02*
D03*
X1123D02*
D03*
X1190Y1940D02*
D03*
X1150D02*
D03*
X1280Y2970D02*
D03*
X1240D02*
D03*
X1330Y3020D02*
D03*
X1370D02*
D03*
X1410Y3080D02*
D03*
X1450D02*
D03*
X1280Y3110D02*
D03*
X1320D02*
D03*
X1210Y1490D02*
D03*
X1250D02*
D03*
X1160Y1590D02*
D03*
X1120D02*
D03*
D14*
X1867Y1790D02*
D03*
X1633D02*
D03*
X2467Y1440D02*
D03*
X2233D02*
D03*
X1633D02*
D03*
X1867D02*
D03*
D15*
X2230Y3430D02*
D03*
Y3090D02*
D03*
D16*
X1740Y1233D02*
D03*
Y1167D02*
D03*
X1660Y1233D02*
D03*
Y1167D02*
D03*
D17*
X2500Y3103D02*
D03*
Y3237D02*
D03*
D18*
X1140Y2831D02*
D03*
Y2909D02*
D03*
D19*
X1074Y2055D02*
D03*
X1126D02*
D03*
Y2425D02*
D03*
X1074D02*
D03*
D20*
X1140Y2671D02*
D03*
Y2631D02*
D03*
X1250Y1430D02*
D03*
Y1390D02*
D03*
X1410Y1566D02*
D03*
Y1525D02*
D03*
D21*
X1308Y3260D02*
D03*
X1252D02*
D03*
D22*
X1450Y3123D02*
D03*
Y3157D02*
D03*
X1460Y1533D02*
D03*
Y1567D02*
D03*
D23*
X1266Y1536D02*
D03*
Y1550D02*
D03*
Y1564D02*
D03*
X1220D02*
D03*
Y1550D02*
D03*
Y1536D02*
D03*
D24*
X1308Y1380D02*
D03*
X1452D02*
D03*
D25*
X1340Y1518D02*
D03*
Y1662D02*
D03*
M02*
