G04*
G04 #@! TF.GenerationSoftware,Altium Limited,Altium Designer,21.2.2 (38)*
G04*
G04 Layer_Color=8388736*
%FSLAX23Y23*%
%MOIN*%
G70*
G04*
G04 #@! TF.SameCoordinates,6939E313-D8E2-45C8-8463-115B02E7E026*
G04*
G04*
G04 #@! TF.FilePolarity,Negative*
G04*
G01*
G75*
%ADD26R,0.027X0.028*%
%ADD27R,0.148X0.079*%
%ADD28R,0.087X0.160*%
%ADD29R,0.066X0.049*%
%ADD30R,0.038X0.055*%
%ADD31R,0.065X0.045*%
%ADD32R,0.030X0.079*%
%ADD33R,0.028X0.027*%
%ADD34R,0.039X0.047*%
%ADD35R,0.032X0.034*%
%ADD36R,0.022X0.014*%
%ADD37R,0.033X0.056*%
%ADD38R,0.056X0.033*%
%ADD39R,0.061X0.061*%
%ADD40C,0.061*%
%ADD41R,0.061X0.061*%
%ADD42C,0.106*%
%ADD43C,0.020*%
D26*
X1310Y1460D02*
D03*
X1350D02*
D03*
X1083Y2731D02*
D03*
X1123D02*
D03*
X1190Y1940D02*
D03*
X1150D02*
D03*
X1280Y2970D02*
D03*
X1240D02*
D03*
X1330Y3020D02*
D03*
X1370D02*
D03*
X1410Y3080D02*
D03*
X1450D02*
D03*
X1280Y3110D02*
D03*
X1320D02*
D03*
X1210Y1490D02*
D03*
X1250D02*
D03*
X1160Y1590D02*
D03*
X1120D02*
D03*
D27*
X1867Y1790D02*
D03*
X1633D02*
D03*
X2467Y1440D02*
D03*
X2233D02*
D03*
X1633D02*
D03*
X1867D02*
D03*
D28*
X2230Y3430D02*
D03*
Y3090D02*
D03*
D29*
X1740Y1233D02*
D03*
Y1167D02*
D03*
X1660Y1233D02*
D03*
Y1167D02*
D03*
D30*
X2500Y3103D02*
D03*
Y3237D02*
D03*
D31*
X1140Y2831D02*
D03*
Y2909D02*
D03*
D32*
X1074Y2055D02*
D03*
X1126D02*
D03*
Y2425D02*
D03*
X1074D02*
D03*
D33*
X1140Y2671D02*
D03*
Y2631D02*
D03*
X1250Y1430D02*
D03*
Y1390D02*
D03*
X1410Y1566D02*
D03*
Y1525D02*
D03*
D34*
X1308Y3260D02*
D03*
X1252D02*
D03*
D35*
X1450Y3123D02*
D03*
Y3157D02*
D03*
X1460Y1533D02*
D03*
Y1567D02*
D03*
D36*
X1266Y1536D02*
D03*
Y1550D02*
D03*
Y1564D02*
D03*
X1220D02*
D03*
Y1550D02*
D03*
Y1536D02*
D03*
D37*
X1308Y1380D02*
D03*
X1452D02*
D03*
D38*
X1340Y1518D02*
D03*
Y1662D02*
D03*
D39*
X1911Y3530D02*
D03*
X2129Y1060D02*
D03*
D40*
X1990Y3530D02*
D03*
X2069D02*
D03*
X2510Y3461D02*
D03*
Y3383D02*
D03*
X2050Y1060D02*
D03*
X1971D02*
D03*
X1070Y1310D02*
D03*
Y1231D02*
D03*
D41*
X2510Y3540D02*
D03*
X1070Y1389D02*
D03*
D42*
X1280Y2855D02*
D03*
X1480D02*
D03*
X1680D02*
D03*
X2080D02*
D03*
X2480D02*
D03*
X1880D02*
D03*
X2280D02*
D03*
X1280Y2055D02*
D03*
X1480D02*
D03*
X1680D02*
D03*
X2080D02*
D03*
X2480D02*
D03*
X1880D02*
D03*
X2280D02*
D03*
D43*
X1246Y1351D02*
D03*
X1267Y1592D02*
D03*
X1157Y1522D02*
D03*
X1190Y1430D02*
D03*
X1510Y1180D02*
D03*
X1461Y1606D02*
D03*
X1411Y1596D02*
D03*
X1448Y1448D02*
D03*
X1502Y1216D02*
D03*
X1490Y1360D02*
D03*
X1291Y1083D02*
D03*
X1670Y1600D02*
D03*
Y1530D02*
D03*
X1951Y1288D02*
D03*
Y1345D02*
D03*
X1230Y2752D02*
D03*
X1260D02*
D03*
X1230Y2781D02*
D03*
X1260D02*
D03*
Y2724D02*
D03*
X1230D02*
D03*
X1260Y2695D02*
D03*
X1230D02*
D03*
X1260Y2666D02*
D03*
X1230D02*
D03*
X1260Y2637D02*
D03*
X1230D02*
D03*
X1260Y2609D02*
D03*
X1230D02*
D03*
X1260Y2580D02*
D03*
X1230D02*
D03*
X1609Y1741D02*
D03*
X1569D02*
D03*
X1690Y1380D02*
D03*
X1637D02*
D03*
X1587D02*
D03*
X1736Y1281D02*
D03*
X1699D02*
D03*
X1669D02*
D03*
X1639D02*
D03*
X1723Y1380D02*
D03*
X1715Y1643D02*
D03*
X1699Y1671D02*
D03*
X1689Y1701D02*
D03*
X1659D02*
D03*
X1730Y1539D02*
D03*
Y1569D02*
D03*
Y1599D02*
D03*
Y1507D02*
D03*
X2003Y1140D02*
D03*
X2033D02*
D03*
X1973D02*
D03*
X1943D02*
D03*
X1913D02*
D03*
X1883D02*
D03*
X1853D02*
D03*
X2213D02*
D03*
X2243D02*
D03*
X2183D02*
D03*
X2153D02*
D03*
X2123D02*
D03*
X2093D02*
D03*
X2063D02*
D03*
X2093Y1232D02*
D03*
X2063D02*
D03*
X2123D02*
D03*
X2063Y1202D02*
D03*
Y1172D02*
D03*
X2093D02*
D03*
Y1202D02*
D03*
X2123D02*
D03*
Y1172D02*
D03*
X2153D02*
D03*
X2183D02*
D03*
X2153Y1202D02*
D03*
X2183D02*
D03*
X2153Y1232D02*
D03*
X2183D02*
D03*
X2243D02*
D03*
X2213D02*
D03*
X2243Y1202D02*
D03*
X2213D02*
D03*
X2243Y1172D02*
D03*
X2213D02*
D03*
X1883Y1232D02*
D03*
X1853D02*
D03*
X1913D02*
D03*
X1853Y1202D02*
D03*
Y1172D02*
D03*
X1883D02*
D03*
Y1202D02*
D03*
X1913D02*
D03*
Y1172D02*
D03*
X1943D02*
D03*
X1973D02*
D03*
X1943Y1202D02*
D03*
X1973D02*
D03*
X1943Y1232D02*
D03*
X1973D02*
D03*
X2033D02*
D03*
X2003D02*
D03*
X2033Y1202D02*
D03*
X2003D02*
D03*
X2033Y1172D02*
D03*
X2003D02*
D03*
X2560Y1490D02*
D03*
Y1400D02*
D03*
Y1430D02*
D03*
Y1460D02*
D03*
X2510Y1390D02*
D03*
Y1300D02*
D03*
Y1330D02*
D03*
Y1360D02*
D03*
Y1600D02*
D03*
Y1510D02*
D03*
Y1540D02*
D03*
Y1570D02*
D03*
X1590Y1065D02*
D03*
X1680Y1090D02*
D03*
X1400Y3250D02*
D03*
X1331Y3187D02*
D03*
X1301D02*
D03*
X1271D02*
D03*
X1241D02*
D03*
X1121Y3308D02*
D03*
X1170Y3300D02*
D03*
X1150Y3320D02*
D03*
X2370Y3230D02*
D03*
X2400D02*
D03*
X2370Y3260D02*
D03*
X2400D02*
D03*
X2362Y2983D02*
D03*
Y2953D02*
D03*
X2392D02*
D03*
X2422D02*
D03*
X2392Y2983D02*
D03*
X2422D02*
D03*
X2482D02*
D03*
X2452D02*
D03*
X2482Y2953D02*
D03*
X2452D02*
D03*
X2305Y2954D02*
D03*
X2335D02*
D03*
X2305Y2984D02*
D03*
X2335D02*
D03*
X2275D02*
D03*
X2245D02*
D03*
X2275Y2954D02*
D03*
X2245D02*
D03*
X2215D02*
D03*
Y2984D02*
D03*
X2143Y2781D02*
D03*
Y2751D02*
D03*
Y2721D02*
D03*
X2173D02*
D03*
X2203D02*
D03*
X2173Y2751D02*
D03*
X2203D02*
D03*
X2173Y2781D02*
D03*
X2203D02*
D03*
X2263D02*
D03*
X2233D02*
D03*
X2263Y2751D02*
D03*
X2233D02*
D03*
X2263Y2721D02*
D03*
X2233D02*
D03*
X2380Y2720D02*
D03*
X2410D02*
D03*
X2380Y2750D02*
D03*
X2410D02*
D03*
X2380Y2780D02*
D03*
X2410D02*
D03*
X2350D02*
D03*
X2320D02*
D03*
X2350Y2750D02*
D03*
X2320D02*
D03*
X2350Y2720D02*
D03*
X2320D02*
D03*
X2290D02*
D03*
Y2750D02*
D03*
Y2780D02*
D03*
X2379Y1759D02*
D03*
Y1729D02*
D03*
Y1699D02*
D03*
X2409D02*
D03*
X2439D02*
D03*
X2409Y1729D02*
D03*
X2439D02*
D03*
X2409Y1759D02*
D03*
X2439D02*
D03*
X2499D02*
D03*
X2469D02*
D03*
X2499Y1729D02*
D03*
X2469D02*
D03*
X2499Y1699D02*
D03*
X2469D02*
D03*
X2409Y1849D02*
D03*
Y1819D02*
D03*
Y1789D02*
D03*
X2439D02*
D03*
X2469D02*
D03*
X2439Y1819D02*
D03*
X2469D02*
D03*
X2439Y1849D02*
D03*
X2469D02*
D03*
X2529D02*
D03*
X2499D02*
D03*
X2529Y1819D02*
D03*
X2499D02*
D03*
X2529Y1789D02*
D03*
X2499D02*
D03*
X1974Y1902D02*
D03*
X2004D02*
D03*
X1974Y1932D02*
D03*
X2004D02*
D03*
X1974Y1962D02*
D03*
X2004D02*
D03*
X1944D02*
D03*
X1914D02*
D03*
X1944Y1932D02*
D03*
X1914D02*
D03*
X1944Y1902D02*
D03*
X1914D02*
D03*
X1884D02*
D03*
Y1932D02*
D03*
Y1962D02*
D03*
X2474Y1892D02*
D03*
X2504D02*
D03*
X2474Y1922D02*
D03*
X2504D02*
D03*
X2474Y1952D02*
D03*
X2504D02*
D03*
X2444D02*
D03*
X2414D02*
D03*
X2444Y1922D02*
D03*
X2414D02*
D03*
X2444Y1892D02*
D03*
X2414D02*
D03*
X2384D02*
D03*
Y1922D02*
D03*
Y1952D02*
D03*
X1850Y2140D02*
D03*
Y2170D02*
D03*
Y2200D02*
D03*
X2387Y2199D02*
D03*
Y2169D02*
D03*
Y2139D02*
D03*
X2417D02*
D03*
X2447D02*
D03*
X2417Y2169D02*
D03*
X2447D02*
D03*
X2417Y2199D02*
D03*
X2447D02*
D03*
X2507D02*
D03*
X2477D02*
D03*
X2507Y2169D02*
D03*
X2477D02*
D03*
X2507Y2139D02*
D03*
X2477D02*
D03*
X2330Y2140D02*
D03*
X2360D02*
D03*
X2330Y2170D02*
D03*
X2360D02*
D03*
X2330Y2200D02*
D03*
X2360D02*
D03*
X2300D02*
D03*
X2270D02*
D03*
X2300Y2170D02*
D03*
X2270D02*
D03*
X2300Y2140D02*
D03*
X2270D02*
D03*
X2240D02*
D03*
Y2170D02*
D03*
X2210D02*
D03*
Y2140D02*
D03*
X2240Y2200D02*
D03*
X2210D02*
D03*
X2030D02*
D03*
X2000D02*
D03*
X2060D02*
D03*
X2000Y2170D02*
D03*
Y2140D02*
D03*
X2030D02*
D03*
Y2170D02*
D03*
X2060D02*
D03*
Y2140D02*
D03*
X2090D02*
D03*
X2120D02*
D03*
X2090Y2170D02*
D03*
X2120D02*
D03*
X2090Y2200D02*
D03*
X2120D02*
D03*
X2180D02*
D03*
X2150D02*
D03*
X2180Y2170D02*
D03*
X2150D02*
D03*
X2180Y2140D02*
D03*
X2150D02*
D03*
X1940D02*
D03*
X1970D02*
D03*
X1940Y2170D02*
D03*
X1970D02*
D03*
X1940Y2200D02*
D03*
X1970D02*
D03*
X1910D02*
D03*
Y2170D02*
D03*
Y2140D02*
D03*
X1880D02*
D03*
Y2170D02*
D03*
Y2200D02*
D03*
X1910Y1730D02*
D03*
Y1700D02*
D03*
X1940D02*
D03*
Y1730D02*
D03*
X1970D02*
D03*
X2000D02*
D03*
X1970Y1700D02*
D03*
X2000D02*
D03*
X2030D02*
D03*
Y1730D02*
D03*
X1870Y1620D02*
D03*
Y1590D02*
D03*
Y1560D02*
D03*
X1900D02*
D03*
Y1590D02*
D03*
Y1620D02*
D03*
X1870Y1650D02*
D03*
X1900D02*
D03*
X1960D02*
D03*
X1930D02*
D03*
X1960Y1620D02*
D03*
X1930D02*
D03*
X1960Y1590D02*
D03*
X1930D02*
D03*
X1960Y1560D02*
D03*
X1930D02*
D03*
X2140Y1500D02*
D03*
X2170D02*
D03*
X2140Y1530D02*
D03*
X2170D02*
D03*
X2140Y1560D02*
D03*
X2170D02*
D03*
X2140Y1590D02*
D03*
X2170D02*
D03*
X2140Y1620D02*
D03*
X2170D02*
D03*
X2200D02*
D03*
X2110D02*
D03*
X2080D02*
D03*
X2110Y1590D02*
D03*
X2080D02*
D03*
X2110Y1560D02*
D03*
Y1530D02*
D03*
Y1500D02*
D03*
Y1460D02*
D03*
Y1430D02*
D03*
X2080D02*
D03*
X2050D02*
D03*
X2080Y1460D02*
D03*
X2050D02*
D03*
Y1500D02*
D03*
X2080D02*
D03*
X2050Y1530D02*
D03*
X2080D02*
D03*
Y1560D02*
D03*
X2050D02*
D03*
Y1590D02*
D03*
X2020D02*
D03*
Y1560D02*
D03*
Y1530D02*
D03*
Y1500D02*
D03*
Y1460D02*
D03*
Y1430D02*
D03*
X1990D02*
D03*
Y1460D02*
D03*
Y1500D02*
D03*
Y1530D02*
D03*
Y1560D02*
D03*
Y1590D02*
D03*
X2050Y1680D02*
D03*
Y1650D02*
D03*
Y1620D02*
D03*
X1990D02*
D03*
Y1650D02*
D03*
Y1680D02*
D03*
X2020D02*
D03*
Y1620D02*
D03*
Y1650D02*
D03*
X1130Y3210D02*
D03*
X1208Y3065D02*
D03*
X1650Y2780D02*
D03*
X1910D02*
D03*
X1700D02*
D03*
X1860D02*
D03*
X1750D02*
D03*
X1810D02*
D03*
X1780Y2810D02*
D03*
Y2850D02*
D03*
X1840Y2500D02*
D03*
X1690D02*
D03*
X1740D02*
D03*
X1790D02*
D03*
X1890Y2490D02*
D03*
X1840Y2470D02*
D03*
X1790D02*
D03*
X1740D02*
D03*
X1690D02*
D03*
X1310Y3300D02*
D03*
X1360Y2970D02*
D03*
X1320D02*
D03*
X1284Y3070D02*
D03*
X1309D02*
D03*
M02*
