G04*
G04 #@! TF.GenerationSoftware,Altium Limited,Altium Designer,21.2.2 (38)*
G04*
G04 Layer_Color=32768*
%FSLAX23Y23*%
%MOIN*%
G70*
G04*
G04 #@! TF.SameCoordinates,6939E313-D8E2-45C8-8463-115B02E7E026*
G04*
G04*
G04 #@! TF.FilePolarity,Positive*
G04*
G01*
G75*
%ADD10C,0.002*%
%ADD92C,0.004*%
D10*
X1376Y1438D02*
Y1482D01*
X1284D02*
X1376D01*
X1284Y1438D02*
Y1482D01*
Y1438D02*
X1376D01*
X1454Y1238D02*
Y1282D01*
X1546D01*
Y1238D02*
Y1282D01*
X1454Y1238D02*
X1546D01*
X1508Y1396D02*
X1552D01*
Y1304D02*
Y1396D01*
X1508Y1304D02*
X1552D01*
X1508D02*
Y1396D01*
X1474Y1290D02*
Y1430D01*
X1306Y1290D02*
X1474D01*
X1306D02*
Y1430D01*
X1474D01*
X1300Y1053D02*
X1440D01*
X1300D02*
Y1207D01*
X1440D01*
Y1053D02*
Y1207D01*
X1448Y1064D02*
X1492D01*
X1448D02*
Y1156D01*
X1492D01*
Y1064D02*
Y1156D01*
X1438Y1596D02*
X1482D01*
Y1504D02*
Y1596D01*
X1438Y1504D02*
X1482D01*
X1438D02*
Y1596D01*
X1494Y1501D02*
Y1639D01*
X1646Y1501D02*
Y1639D01*
X1494Y1501D02*
X1646D01*
X1494Y1639D02*
X1646D01*
X1494Y1648D02*
Y1692D01*
X1586D01*
Y1648D02*
Y1692D01*
X1494Y1648D02*
X1586D01*
X1392Y1514D02*
X1428D01*
X1392D02*
Y1586D01*
X1428D01*
Y1514D02*
Y1586D01*
X1976Y1617D02*
Y1963D01*
X1524Y1617D02*
Y1963D01*
Y1617D02*
X1976D01*
X1524Y1963D02*
X1976D01*
X2472Y2975D02*
Y3545D01*
X1988Y2975D02*
Y3545D01*
X2472D01*
X1988Y2975D02*
X2472D01*
X2264Y1344D02*
X2361D01*
Y1396D01*
X2264D02*
X2361D01*
X2264Y1344D02*
Y1396D01*
X1705Y1140D02*
X1775D01*
Y1260D01*
X1705D02*
X1775D01*
X1705Y1140D02*
Y1260D01*
X1625Y1140D02*
X1695D01*
Y1260D01*
X1625D02*
X1695D01*
X1625Y1140D02*
Y1260D01*
X1495Y1160D02*
X1565D01*
Y1040D02*
Y1160D01*
X1495Y1040D02*
X1565D01*
X1495D02*
Y1160D01*
X2444Y3288D02*
X2536D01*
Y3332D01*
X2444D02*
X2536D01*
X2444Y3288D02*
Y3332D01*
X2434Y3070D02*
Y3270D01*
X2566D01*
Y3070D02*
Y3270D01*
X2434Y3070D02*
X2566D01*
X1862Y3579D02*
X2118D01*
Y3481D02*
Y3579D01*
X1862Y3481D02*
X2118D01*
X1862D02*
Y3579D01*
X2559Y3333D02*
Y3589D01*
X2461Y3333D02*
X2559D01*
X2461D02*
Y3589D01*
X2559D01*
X1922Y1011D02*
X2178D01*
X1922D02*
Y1109D01*
X2178D01*
Y1011D02*
Y1109D01*
X1119Y1182D02*
Y1438D01*
X1021Y1182D02*
X1119D01*
X1021D02*
Y1438D01*
X1119D01*
X1973Y1377D02*
X2127D01*
Y1259D02*
Y1377D01*
X1973Y1259D02*
X2127D01*
X1973D02*
Y1377D01*
X2257Y1565D02*
Y1635D01*
X2377D01*
Y1565D02*
Y1635D01*
X2257Y1565D02*
X2377D01*
X1839Y1657D02*
Y1727D01*
X1720Y1657D02*
X1839D01*
X1720D02*
Y1727D01*
X1839D01*
X1829Y1357D02*
Y1408D01*
X1731Y1357D02*
X1829D01*
X1731D02*
Y1408D01*
X1829D01*
X1839Y1492D02*
Y1543D01*
X1741Y1492D02*
X1839D01*
X1741D02*
Y1543D01*
X1839D01*
Y1574D02*
Y1626D01*
X1741Y1574D02*
X1839D01*
X1741D02*
Y1626D01*
X1839D01*
X2251Y1485D02*
Y1555D01*
X2370D01*
Y1485D02*
Y1555D01*
X2251Y1485D02*
X2370D01*
X1839Y1410D02*
Y1480D01*
X1720Y1410D02*
X1839D01*
X1720D02*
Y1480D01*
X1839D01*
X1443Y2623D02*
Y2777D01*
X1138Y2623D02*
X1443D01*
X1138D02*
Y2777D01*
X1443D01*
X1468Y3136D02*
X1512D01*
Y3044D02*
Y3136D01*
X1468Y3044D02*
X1512D01*
X1468D02*
Y3136D01*
X1519Y3224D02*
Y3276D01*
X1421Y3224D02*
X1519D01*
X1421D02*
Y3276D01*
X1519D01*
X1530Y3192D02*
X1660D01*
X1530Y2948D02*
X1660D01*
X1530D02*
Y3192D01*
X1660Y2948D02*
Y3192D01*
X1470Y2949D02*
X1506D01*
X1470D02*
Y3021D01*
X1506D01*
Y2949D02*
Y3021D01*
X1408Y3036D02*
X1452D01*
Y2944D02*
Y3036D01*
X1408Y2944D02*
X1452D01*
X1408D02*
Y3036D01*
X1955Y2428D02*
X2085D01*
X1955Y2672D02*
X2085D01*
Y2428D02*
Y2672D01*
X1955Y2428D02*
Y2672D01*
X2098Y2574D02*
X2142D01*
X2098D02*
Y2666D01*
X2142D01*
Y2574D02*
Y2666D01*
X2160Y2635D02*
X2280D01*
X2160Y2565D02*
Y2635D01*
Y2565D02*
X2280D01*
Y2635D01*
X2109Y2423D02*
X2391D01*
Y2557D01*
X2109D02*
X2391D01*
X2109Y2423D02*
Y2557D01*
X1467Y2777D02*
X1927D01*
X1467Y2494D02*
X1927D01*
Y2777D01*
X1467Y2494D02*
Y2777D01*
X1105Y3289D02*
X1385D01*
X1105Y2984D02*
X1385D01*
X1105D02*
Y3289D01*
X1385Y2984D02*
Y3289D01*
X1101Y2802D02*
Y2938D01*
X1179D01*
Y2802D02*
Y2938D01*
X1101Y2802D02*
X1179D01*
X1057Y2752D02*
X1149D01*
Y2709D02*
Y2752D01*
X1057Y2709D02*
X1149D01*
X1057D02*
Y2752D01*
X1035Y2010D02*
Y2470D01*
X1165D01*
Y2010D02*
Y2470D01*
X1035Y2010D02*
X1165D01*
X1161Y2605D02*
Y2697D01*
X1118Y2605D02*
X1161D01*
X1118D02*
Y2697D01*
X1161D01*
X1124Y1918D02*
X1216D01*
X1124D02*
Y1962D01*
X1216D01*
Y1918D02*
Y1962D01*
X2124Y1267D02*
X2576D01*
X2124Y1613D02*
X2576D01*
Y1267D02*
Y1613D01*
X2124Y1267D02*
Y1613D01*
X1524Y1613D02*
X1976D01*
X1524Y1267D02*
X1976D01*
X1524D02*
Y1613D01*
X1976Y1267D02*
Y1613D01*
X1214Y2948D02*
X1306D01*
X1214D02*
Y2992D01*
X1306D01*
Y2948D02*
Y2992D01*
X1304Y3042D02*
X1396D01*
Y2998D02*
Y3042D01*
X1304Y2998D02*
X1396D01*
X1304D02*
Y3042D01*
X1231Y3234D02*
X1329D01*
X1231D02*
Y3286D01*
X1329D01*
Y3234D02*
Y3286D01*
X1384Y3102D02*
X1476D01*
Y3058D02*
Y3102D01*
X1384Y3058D02*
X1476D01*
X1384D02*
Y3102D01*
X1254Y3132D02*
X1346D01*
Y3088D02*
Y3132D01*
X1254Y3088D02*
X1346D01*
X1254D02*
Y3132D01*
X1432Y3104D02*
Y3176D01*
X1468D01*
Y3104D02*
Y3176D01*
X1432Y3104D02*
X1468D01*
X1184Y1512D02*
X1276D01*
Y1468D02*
Y1512D01*
X1184Y1468D02*
X1276D01*
X1184D02*
Y1512D01*
X1272Y1364D02*
Y1456D01*
X1228Y1364D02*
X1272D01*
X1228D02*
Y1456D01*
X1272D01*
X1094Y1568D02*
X1186D01*
X1094D02*
Y1612D01*
X1186D01*
Y1568D02*
Y1612D01*
X1207Y1523D02*
X1279D01*
X1207D02*
Y1577D01*
X1279D01*
Y1523D02*
Y1577D01*
X1290Y1424D02*
X1470D01*
Y1336D02*
Y1424D01*
X1290Y1336D02*
X1470D01*
X1290D02*
Y1424D01*
X1296Y1500D02*
Y1680D01*
X1384D01*
Y1500D02*
Y1680D01*
X1296Y1500D02*
X1384D01*
X1432Y1499D02*
Y1592D01*
X1388Y1499D02*
X1432D01*
X1388D02*
Y1592D01*
X1432D01*
X1442Y1514D02*
Y1586D01*
X1478D01*
Y1514D02*
Y1586D01*
X1442Y1514D02*
X1478D01*
D92*
X1550Y1570D02*
X1590D01*
X1570Y1550D02*
Y1590D01*
X1730Y1790D02*
X1770D01*
X1750Y1770D02*
Y1810D01*
X2210Y3260D02*
X2250D01*
X2230Y3240D02*
Y3280D01*
X1812Y2966D02*
X2438D01*
Y3454D01*
X1812D02*
X2438D01*
X1812Y2966D02*
Y3454D01*
X1802Y1101D02*
Y1259D01*
X1585Y1101D02*
X1802D01*
X1585D02*
Y1259D01*
X1802D01*
X1837Y1741D02*
Y1816D01*
X1679Y1741D02*
Y1816D01*
X1837D01*
X1679Y1741D02*
X1837D01*
X1738Y1778D02*
X1778D01*
X1758Y1759D02*
Y1798D01*
X2253Y1402D02*
Y1477D01*
X2411Y1402D02*
Y1477D01*
X2253Y1402D02*
X2411D01*
X2253Y1477D02*
X2411D01*
X2312Y1439D02*
X2352D01*
X2332Y1420D02*
Y1459D01*
X1595Y3050D02*
Y3090D01*
X1575Y3070D02*
X1615D01*
X2038Y1600D02*
X2292D01*
X2038D02*
Y1959D01*
X2292D01*
Y1600D02*
Y1959D01*
X2020Y2530D02*
Y2570D01*
X2000Y2550D02*
X2040D01*
X1697Y2616D02*
Y2655D01*
X1677Y2635D02*
X1717D01*
X1245Y3117D02*
Y3156D01*
X1225Y3137D02*
X1265D01*
X2350Y1420D02*
Y1460D01*
X2330Y1440D02*
X2370D01*
X1750Y1420D02*
Y1460D01*
X1730Y1440D02*
X1770D01*
M02*
