G04*
G04 #@! TF.GenerationSoftware,Altium Limited,Altium Designer,21.2.2 (38)*
G04*
G04 Layer_Physical_Order=2*
G04 Layer_Color=36540*
%FSLAX23Y23*%
%MOIN*%
G70*
G04*
G04 #@! TF.SameCoordinates,6939E313-D8E2-45C8-8463-115B02E7E026*
G04*
G04*
G04 #@! TF.FilePolarity,Positive*
G04*
G01*
G75*
%ADD48C,0.053*%
%ADD49R,0.053X0.053*%
%ADD50C,0.098*%
%ADD51C,0.012*%
G36*
X2610Y2190D02*
Y1040D01*
X2580Y1010D01*
X1060D01*
X1010Y1060D01*
Y2190D01*
X1050Y2230D01*
X2570D01*
X2610Y2190D01*
D02*
G37*
%LPC*%
G36*
X2363Y2216D02*
X2357D01*
X2351Y2214D01*
X2348Y2211D01*
X2345Y2210D01*
X2342Y2211D01*
X2339Y2214D01*
X2333Y2216D01*
X2327D01*
X2321Y2214D01*
X2318Y2211D01*
X2315Y2210D01*
X2312Y2211D01*
X2309Y2214D01*
X2303Y2216D01*
X2297D01*
X2291Y2214D01*
X2288Y2211D01*
X2285Y2210D01*
X2282Y2211D01*
X2279Y2214D01*
X2273Y2216D01*
X2267D01*
X2261Y2214D01*
X2258Y2211D01*
X2255Y2210D01*
X2252Y2211D01*
X2249Y2214D01*
X2243Y2216D01*
X2237D01*
X2231Y2214D01*
X2228Y2211D01*
X2225Y2210D01*
X2222Y2211D01*
X2219Y2214D01*
X2213Y2216D01*
X2207D01*
X2201Y2214D01*
X2198Y2211D01*
X2195Y2210D01*
X2192Y2211D01*
X2189Y2214D01*
X2183Y2216D01*
X2177D01*
X2171Y2214D01*
X2168Y2211D01*
X2165Y2210D01*
X2162Y2211D01*
X2159Y2214D01*
X2153Y2216D01*
X2147D01*
X2141Y2214D01*
X2138Y2211D01*
X2135Y2210D01*
X2132Y2211D01*
X2129Y2214D01*
X2123Y2216D01*
X2117D01*
X2111Y2214D01*
X2108Y2211D01*
X2105Y2210D01*
X2102Y2211D01*
X2099Y2214D01*
X2093Y2216D01*
X2087D01*
X2081Y2214D01*
X2078Y2211D01*
X2075Y2210D01*
X2072Y2211D01*
X2069Y2214D01*
X2063Y2216D01*
X2057D01*
X2051Y2214D01*
X2048Y2211D01*
X2045Y2210D01*
X2042Y2211D01*
X2039Y2214D01*
X2033Y2216D01*
X2027D01*
X2021Y2214D01*
X2018Y2211D01*
X2015Y2210D01*
X2012Y2211D01*
X2009Y2214D01*
X2003Y2216D01*
X1997D01*
X1991Y2214D01*
X1988Y2211D01*
X1985Y2210D01*
X1982Y2211D01*
X1979Y2214D01*
X1973Y2216D01*
X1967D01*
X1961Y2214D01*
X1958Y2211D01*
X1955Y2210D01*
X1952Y2211D01*
X1949Y2214D01*
X1943Y2216D01*
X1937D01*
X1931Y2214D01*
X1928Y2211D01*
X1925Y2210D01*
X1922Y2211D01*
X1919Y2214D01*
X1913Y2216D01*
X1907D01*
X1901Y2214D01*
X1898Y2211D01*
X1895Y2210D01*
X1892Y2211D01*
X1889Y2214D01*
X1883Y2216D01*
X1877D01*
X1871Y2214D01*
X1868Y2211D01*
X1865Y2210D01*
X1862Y2211D01*
X1859Y2214D01*
X1853Y2216D01*
X1847D01*
X1841Y2214D01*
X1836Y2209D01*
X1834Y2203D01*
Y2197D01*
X1836Y2191D01*
X1839Y2188D01*
X1840Y2185D01*
X1839Y2182D01*
X1836Y2179D01*
X1834Y2173D01*
Y2167D01*
X1836Y2161D01*
X1839Y2158D01*
X1840Y2155D01*
X1839Y2152D01*
X1836Y2149D01*
X1834Y2143D01*
Y2137D01*
X1836Y2131D01*
X1841Y2126D01*
X1847Y2124D01*
X1853D01*
X1859Y2126D01*
X1862Y2129D01*
X1865Y2130D01*
X1868Y2129D01*
X1871Y2126D01*
X1877Y2124D01*
X1883D01*
X1889Y2126D01*
X1892Y2129D01*
X1895Y2130D01*
X1898Y2129D01*
X1901Y2126D01*
X1907Y2124D01*
X1913D01*
X1919Y2126D01*
X1922Y2129D01*
X1925Y2130D01*
X1928Y2129D01*
X1931Y2126D01*
X1937Y2124D01*
X1943D01*
X1949Y2126D01*
X1952Y2129D01*
X1955Y2130D01*
X1958Y2129D01*
X1961Y2126D01*
X1967Y2124D01*
X1973D01*
X1979Y2126D01*
X1982Y2129D01*
X1985Y2130D01*
X1988Y2129D01*
X1991Y2126D01*
X1997Y2124D01*
X2003D01*
X2009Y2126D01*
X2012Y2129D01*
X2015Y2130D01*
X2018Y2129D01*
X2021Y2126D01*
X2027Y2124D01*
X2033D01*
X2039Y2126D01*
X2042Y2129D01*
X2045Y2130D01*
X2048Y2129D01*
X2051Y2126D01*
X2057Y2124D01*
X2063D01*
X2069Y2126D01*
X2072Y2129D01*
X2075Y2130D01*
X2078Y2129D01*
X2081Y2126D01*
X2087Y2124D01*
X2093D01*
X2099Y2126D01*
X2102Y2129D01*
X2105Y2130D01*
X2108Y2129D01*
X2111Y2126D01*
X2117Y2124D01*
X2123D01*
X2129Y2126D01*
X2132Y2129D01*
X2135Y2130D01*
X2138Y2129D01*
X2141Y2126D01*
X2147Y2124D01*
X2153D01*
X2159Y2126D01*
X2162Y2129D01*
X2165Y2130D01*
X2168Y2129D01*
X2171Y2126D01*
X2177Y2124D01*
X2183D01*
X2189Y2126D01*
X2192Y2129D01*
X2195Y2130D01*
X2198Y2129D01*
X2201Y2126D01*
X2207Y2124D01*
X2213D01*
X2219Y2126D01*
X2222Y2129D01*
X2225Y2130D01*
X2228Y2129D01*
X2231Y2126D01*
X2237Y2124D01*
X2243D01*
X2249Y2126D01*
X2252Y2129D01*
X2255Y2130D01*
X2258Y2129D01*
X2261Y2126D01*
X2267Y2124D01*
X2273D01*
X2279Y2126D01*
X2282Y2129D01*
X2285Y2130D01*
X2288Y2129D01*
X2291Y2126D01*
X2297Y2124D01*
X2303D01*
X2309Y2126D01*
X2312Y2129D01*
X2315Y2130D01*
X2318Y2129D01*
X2321Y2126D01*
X2327Y2124D01*
X2333D01*
X2339Y2126D01*
X2342Y2129D01*
X2345Y2130D01*
X2348Y2129D01*
X2351Y2126D01*
X2357Y2124D01*
X2363D01*
X2369Y2126D01*
X2373Y2130D01*
X2373Y2130D01*
X2378Y2126D01*
X2384Y2123D01*
X2390D01*
X2396Y2126D01*
X2399Y2128D01*
X2402Y2129D01*
X2405Y2128D01*
X2408Y2126D01*
X2414Y2123D01*
X2420D01*
X2426Y2126D01*
X2429Y2128D01*
X2432Y2129D01*
X2435Y2128D01*
X2438Y2126D01*
X2444Y2123D01*
X2450D01*
X2456Y2126D01*
X2459Y2128D01*
X2462Y2129D01*
X2465Y2128D01*
X2468Y2126D01*
X2474Y2123D01*
X2480D01*
X2486Y2126D01*
X2489Y2128D01*
X2492Y2129D01*
X2495Y2128D01*
X2498Y2126D01*
X2504Y2123D01*
X2510D01*
X2516Y2126D01*
X2521Y2130D01*
X2523Y2136D01*
Y2142D01*
X2521Y2148D01*
X2518Y2151D01*
X2517Y2154D01*
X2518Y2157D01*
X2521Y2160D01*
X2523Y2166D01*
Y2172D01*
X2521Y2178D01*
X2518Y2181D01*
X2517Y2184D01*
X2518Y2187D01*
X2521Y2190D01*
X2523Y2196D01*
Y2202D01*
X2521Y2208D01*
X2516Y2213D01*
X2510Y2215D01*
X2504D01*
X2498Y2213D01*
X2495Y2210D01*
X2492Y2209D01*
X2489Y2210D01*
X2486Y2213D01*
X2480Y2215D01*
X2474D01*
X2468Y2213D01*
X2465Y2210D01*
X2462Y2209D01*
X2459Y2210D01*
X2456Y2213D01*
X2450Y2215D01*
X2444D01*
X2438Y2213D01*
X2435Y2210D01*
X2432Y2209D01*
X2429Y2210D01*
X2426Y2213D01*
X2420Y2215D01*
X2414D01*
X2408Y2213D01*
X2405Y2210D01*
X2402Y2209D01*
X2399Y2210D01*
X2396Y2213D01*
X2390Y2215D01*
X2384D01*
X2378Y2213D01*
X2374Y2209D01*
X2374Y2209D01*
X2369Y2214D01*
X2363Y2216D01*
D02*
G37*
G36*
X2486Y2114D02*
X2474D01*
X2463Y2112D01*
X2452Y2107D01*
X2442Y2101D01*
X2434Y2093D01*
X2428Y2083D01*
X2423Y2072D01*
X2421Y2061D01*
Y2049D01*
X2423Y2038D01*
X2428Y2027D01*
X2434Y2017D01*
X2442Y2009D01*
X2452Y2003D01*
X2463Y1998D01*
X2474Y1996D01*
X2486D01*
X2497Y1998D01*
X2508Y2003D01*
X2518Y2009D01*
X2526Y2017D01*
X2532Y2027D01*
X2537Y2038D01*
X2539Y2049D01*
Y2061D01*
X2537Y2072D01*
X2532Y2083D01*
X2526Y2093D01*
X2518Y2101D01*
X2508Y2107D01*
X2497Y2112D01*
X2486Y2114D01*
D02*
G37*
G36*
X2286D02*
X2274D01*
X2263Y2112D01*
X2252Y2107D01*
X2242Y2101D01*
X2234Y2093D01*
X2228Y2083D01*
X2223Y2072D01*
X2221Y2061D01*
Y2049D01*
X2223Y2038D01*
X2228Y2027D01*
X2234Y2017D01*
X2242Y2009D01*
X2252Y2003D01*
X2263Y1998D01*
X2274Y1996D01*
X2286D01*
X2297Y1998D01*
X2308Y2003D01*
X2318Y2009D01*
X2326Y2017D01*
X2332Y2027D01*
X2337Y2038D01*
X2339Y2049D01*
Y2061D01*
X2337Y2072D01*
X2332Y2083D01*
X2326Y2093D01*
X2318Y2101D01*
X2308Y2107D01*
X2297Y2112D01*
X2286Y2114D01*
D02*
G37*
G36*
X2086D02*
X2074D01*
X2063Y2112D01*
X2052Y2107D01*
X2042Y2101D01*
X2034Y2093D01*
X2028Y2083D01*
X2023Y2072D01*
X2021Y2061D01*
Y2049D01*
X2023Y2038D01*
X2028Y2027D01*
X2034Y2017D01*
X2042Y2009D01*
X2052Y2003D01*
X2063Y1998D01*
X2074Y1996D01*
X2086D01*
X2097Y1998D01*
X2108Y2003D01*
X2118Y2009D01*
X2126Y2017D01*
X2132Y2027D01*
X2137Y2038D01*
X2139Y2049D01*
Y2061D01*
X2137Y2072D01*
X2132Y2083D01*
X2126Y2093D01*
X2118Y2101D01*
X2108Y2107D01*
X2097Y2112D01*
X2086Y2114D01*
D02*
G37*
G36*
X1886D02*
X1874D01*
X1863Y2112D01*
X1852Y2107D01*
X1842Y2101D01*
X1834Y2093D01*
X1828Y2083D01*
X1823Y2072D01*
X1821Y2061D01*
Y2049D01*
X1823Y2038D01*
X1828Y2027D01*
X1834Y2017D01*
X1842Y2009D01*
X1852Y2003D01*
X1863Y1998D01*
X1874Y1996D01*
X1886D01*
X1897Y1998D01*
X1908Y2003D01*
X1918Y2009D01*
X1926Y2017D01*
X1932Y2027D01*
X1937Y2038D01*
X1939Y2049D01*
Y2061D01*
X1937Y2072D01*
X1932Y2083D01*
X1926Y2093D01*
X1918Y2101D01*
X1908Y2107D01*
X1897Y2112D01*
X1886Y2114D01*
D02*
G37*
G36*
X2007Y1978D02*
X2000D01*
X1995Y1975D01*
X1992Y1973D01*
X1989Y1971D01*
X1985Y1973D01*
X1983Y1975D01*
X1977Y1978D01*
X1970D01*
X1965Y1975D01*
X1962Y1973D01*
X1959Y1971D01*
X1955Y1973D01*
X1953Y1975D01*
X1947Y1978D01*
X1940D01*
X1935Y1975D01*
X1932Y1973D01*
X1929Y1971D01*
X1925Y1973D01*
X1923Y1975D01*
X1917Y1978D01*
X1910D01*
X1905Y1975D01*
X1902Y1973D01*
X1899Y1971D01*
X1895Y1973D01*
X1893Y1975D01*
X1887Y1978D01*
X1880D01*
X1875Y1975D01*
X1870Y1971D01*
X1868Y1965D01*
Y1958D01*
X1870Y1953D01*
X1873Y1950D01*
X1874Y1947D01*
X1873Y1943D01*
X1870Y1941D01*
X1868Y1935D01*
Y1928D01*
X1870Y1923D01*
X1873Y1920D01*
X1874Y1917D01*
X1873Y1913D01*
X1870Y1911D01*
X1868Y1905D01*
Y1898D01*
X1870Y1893D01*
X1875Y1888D01*
X1880Y1886D01*
X1887D01*
X1893Y1888D01*
X1895Y1891D01*
X1899Y1892D01*
X1902Y1891D01*
X1905Y1888D01*
X1910Y1886D01*
X1917D01*
X1923Y1888D01*
X1925Y1891D01*
X1929Y1892D01*
X1932Y1891D01*
X1935Y1888D01*
X1940Y1886D01*
X1947D01*
X1953Y1888D01*
X1955Y1891D01*
X1959Y1892D01*
X1962Y1891D01*
X1965Y1888D01*
X1970Y1886D01*
X1977D01*
X1983Y1888D01*
X1985Y1891D01*
X1989Y1892D01*
X1992Y1891D01*
X1995Y1888D01*
X2000Y1886D01*
X2007D01*
X2013Y1888D01*
X2017Y1893D01*
X2020Y1898D01*
Y1905D01*
X2017Y1911D01*
X2014Y1913D01*
X2013Y1917D01*
X2014Y1920D01*
X2017Y1923D01*
X2020Y1928D01*
Y1935D01*
X2017Y1941D01*
X2014Y1943D01*
X2013Y1947D01*
X2014Y1950D01*
X2017Y1953D01*
X2020Y1958D01*
Y1965D01*
X2017Y1971D01*
X2013Y1975D01*
X2007Y1978D01*
D02*
G37*
G36*
X2507Y1968D02*
X2500D01*
X2495Y1965D01*
X2492Y1963D01*
X2489Y1961D01*
X2485Y1963D01*
X2483Y1965D01*
X2477Y1968D01*
X2470D01*
X2465Y1965D01*
X2462Y1963D01*
X2459Y1961D01*
X2455Y1963D01*
X2453Y1965D01*
X2447Y1968D01*
X2440D01*
X2435Y1965D01*
X2432Y1963D01*
X2429Y1961D01*
X2425Y1963D01*
X2423Y1965D01*
X2417Y1968D01*
X2410D01*
X2405Y1965D01*
X2402Y1963D01*
X2399Y1961D01*
X2395Y1963D01*
X2393Y1965D01*
X2387Y1968D01*
X2380D01*
X2375Y1965D01*
X2370Y1961D01*
X2368Y1955D01*
Y1948D01*
X2370Y1943D01*
X2373Y1940D01*
X2374Y1937D01*
X2373Y1933D01*
X2370Y1931D01*
X2368Y1925D01*
Y1918D01*
X2370Y1913D01*
X2373Y1910D01*
X2374Y1907D01*
X2373Y1903D01*
X2370Y1901D01*
X2368Y1895D01*
Y1888D01*
X2370Y1883D01*
X2375Y1878D01*
X2380Y1876D01*
X2387D01*
X2393Y1878D01*
X2395Y1881D01*
X2399Y1882D01*
X2402Y1881D01*
X2405Y1878D01*
X2410Y1876D01*
X2417D01*
X2423Y1878D01*
X2425Y1881D01*
X2429Y1882D01*
X2432Y1881D01*
X2435Y1878D01*
X2440Y1876D01*
X2447D01*
X2453Y1878D01*
X2455Y1881D01*
X2459Y1882D01*
X2462Y1881D01*
X2465Y1878D01*
X2470Y1876D01*
X2477D01*
X2483Y1878D01*
X2485Y1881D01*
X2489Y1882D01*
X2492Y1881D01*
X2495Y1878D01*
X2500Y1876D01*
X2507D01*
X2513Y1878D01*
X2517Y1883D01*
X2520Y1888D01*
Y1895D01*
X2517Y1901D01*
X2514Y1903D01*
X2513Y1907D01*
X2514Y1910D01*
X2517Y1913D01*
X2520Y1918D01*
Y1925D01*
X2517Y1931D01*
X2514Y1933D01*
X2513Y1937D01*
X2514Y1940D01*
X2517Y1943D01*
X2520Y1948D01*
Y1955D01*
X2517Y1961D01*
X2513Y1965D01*
X2507Y1968D01*
D02*
G37*
G36*
X2532Y1865D02*
X2526D01*
X2520Y1863D01*
X2517Y1860D01*
X2514Y1859D01*
X2511Y1860D01*
X2508Y1863D01*
X2502Y1865D01*
X2496D01*
X2490Y1863D01*
X2487Y1860D01*
X2484Y1859D01*
X2481Y1860D01*
X2478Y1863D01*
X2472Y1865D01*
X2466D01*
X2460Y1863D01*
X2457Y1860D01*
X2454Y1859D01*
X2451Y1860D01*
X2448Y1863D01*
X2442Y1865D01*
X2436D01*
X2430Y1863D01*
X2427Y1860D01*
X2424Y1859D01*
X2421Y1860D01*
X2418Y1863D01*
X2412Y1865D01*
X2406D01*
X2400Y1863D01*
X2395Y1858D01*
X2393Y1852D01*
Y1846D01*
X2395Y1840D01*
X2398Y1838D01*
X2399Y1834D01*
X2398Y1831D01*
X2395Y1828D01*
X2393Y1822D01*
Y1816D01*
X2395Y1810D01*
X2398Y1808D01*
X2399Y1804D01*
X2398Y1801D01*
X2395Y1798D01*
X2393Y1792D01*
Y1786D01*
X2395Y1780D01*
X2398Y1778D01*
X2399Y1774D01*
X2398Y1771D01*
X2393Y1769D01*
X2391Y1770D01*
X2388Y1773D01*
X2382Y1775D01*
X2376D01*
X2370Y1773D01*
X2365Y1768D01*
X2363Y1762D01*
Y1756D01*
X2365Y1750D01*
X2368Y1748D01*
X2369Y1744D01*
X2368Y1741D01*
X2365Y1738D01*
X2363Y1732D01*
Y1726D01*
X2365Y1720D01*
X2368Y1718D01*
X2369Y1714D01*
X2368Y1711D01*
X2365Y1708D01*
X2363Y1702D01*
Y1696D01*
X2365Y1690D01*
X2370Y1686D01*
X2376Y1683D01*
X2382D01*
X2388Y1686D01*
X2391Y1688D01*
X2394Y1690D01*
X2397Y1688D01*
X2400Y1686D01*
X2406Y1683D01*
X2412D01*
X2418Y1686D01*
X2421Y1688D01*
X2424Y1690D01*
X2427Y1688D01*
X2430Y1686D01*
X2436Y1683D01*
X2442D01*
X2448Y1686D01*
X2451Y1688D01*
X2454Y1690D01*
X2457Y1688D01*
X2460Y1686D01*
X2466Y1683D01*
X2472D01*
X2478Y1686D01*
X2481Y1688D01*
X2484Y1690D01*
X2487Y1688D01*
X2490Y1686D01*
X2496Y1683D01*
X2502D01*
X2508Y1686D01*
X2512Y1690D01*
X2515Y1696D01*
Y1702D01*
X2512Y1708D01*
X2510Y1711D01*
X2508Y1714D01*
X2510Y1718D01*
X2512Y1720D01*
X2515Y1726D01*
Y1732D01*
X2512Y1738D01*
X2510Y1741D01*
X2508Y1744D01*
X2510Y1748D01*
X2512Y1750D01*
X2515Y1756D01*
Y1762D01*
X2512Y1768D01*
X2510Y1771D01*
X2508Y1774D01*
X2510Y1778D01*
X2511Y1778D01*
X2514Y1780D01*
X2517Y1778D01*
X2520Y1776D01*
X2526Y1773D01*
X2532D01*
X2538Y1776D01*
X2542Y1780D01*
X2545Y1786D01*
Y1792D01*
X2542Y1798D01*
X2540Y1801D01*
X2538Y1804D01*
X2540Y1808D01*
X2542Y1810D01*
X2545Y1816D01*
Y1822D01*
X2542Y1828D01*
X2540Y1831D01*
X2538Y1834D01*
X2540Y1838D01*
X2542Y1840D01*
X2545Y1846D01*
Y1852D01*
X2542Y1858D01*
X2538Y1863D01*
X2532Y1865D01*
D02*
G37*
G36*
X2033Y1746D02*
X2027D01*
X2021Y1744D01*
X2018Y1741D01*
X2015Y1740D01*
X2012Y1741D01*
X2009Y1744D01*
X2003Y1746D01*
X1997D01*
X1991Y1744D01*
X1988Y1741D01*
X1985Y1740D01*
X1982Y1741D01*
X1979Y1744D01*
X1973Y1746D01*
X1967D01*
X1961Y1744D01*
X1958Y1741D01*
X1955Y1740D01*
X1952Y1741D01*
X1949Y1744D01*
X1943Y1746D01*
X1937D01*
X1931Y1744D01*
X1928Y1741D01*
X1925Y1740D01*
X1922Y1741D01*
X1919Y1744D01*
X1913Y1746D01*
X1907D01*
X1901Y1744D01*
X1896Y1739D01*
X1894Y1733D01*
Y1727D01*
X1896Y1721D01*
X1899Y1718D01*
X1900Y1715D01*
X1899Y1712D01*
X1896Y1709D01*
X1894Y1703D01*
Y1697D01*
X1896Y1691D01*
X1901Y1686D01*
X1907Y1684D01*
X1913D01*
X1919Y1686D01*
X1922Y1689D01*
X1925Y1690D01*
X1928Y1689D01*
X1931Y1686D01*
X1937Y1684D01*
X1943D01*
X1949Y1686D01*
X1952Y1689D01*
X1955Y1690D01*
X1958Y1689D01*
X1961Y1686D01*
X1967Y1684D01*
X1969D01*
X1973Y1683D01*
X1974Y1679D01*
Y1677D01*
X1976Y1671D01*
X1979Y1668D01*
X1980Y1665D01*
X1979Y1662D01*
X1975Y1660D01*
X1972Y1661D01*
X1969Y1664D01*
X1963Y1666D01*
X1957D01*
X1951Y1664D01*
X1948Y1661D01*
X1945Y1660D01*
X1942Y1661D01*
X1939Y1664D01*
X1933Y1666D01*
X1927D01*
X1921Y1664D01*
X1918Y1661D01*
X1915Y1660D01*
X1912Y1661D01*
X1909Y1664D01*
X1903Y1666D01*
X1897D01*
X1891Y1664D01*
X1888Y1661D01*
X1885Y1660D01*
X1882Y1661D01*
X1879Y1664D01*
X1873Y1666D01*
X1867D01*
X1861Y1664D01*
X1856Y1659D01*
X1854Y1653D01*
Y1647D01*
X1856Y1641D01*
X1859Y1638D01*
X1860Y1635D01*
X1859Y1632D01*
X1856Y1629D01*
X1854Y1623D01*
Y1617D01*
X1856Y1611D01*
X1859Y1608D01*
X1860Y1605D01*
X1859Y1602D01*
X1856Y1599D01*
X1854Y1593D01*
Y1587D01*
X1856Y1581D01*
X1859Y1578D01*
X1860Y1575D01*
X1859Y1572D01*
X1856Y1569D01*
X1854Y1563D01*
Y1557D01*
X1856Y1551D01*
X1861Y1546D01*
X1867Y1544D01*
X1873D01*
X1879Y1546D01*
X1882Y1549D01*
X1885Y1550D01*
X1888Y1549D01*
X1891Y1546D01*
X1897Y1544D01*
X1903D01*
X1909Y1546D01*
X1912Y1549D01*
X1915Y1550D01*
X1918Y1549D01*
X1921Y1546D01*
X1927Y1544D01*
X1933D01*
X1939Y1546D01*
X1942Y1549D01*
X1945Y1550D01*
X1948Y1549D01*
X1951Y1546D01*
X1957Y1544D01*
X1963D01*
X1969Y1546D01*
X1972Y1549D01*
X1975Y1550D01*
X1978Y1549D01*
X1979Y1548D01*
X1980Y1545D01*
X1979Y1542D01*
X1976Y1539D01*
X1974Y1533D01*
Y1527D01*
X1976Y1521D01*
X1979Y1518D01*
X1980Y1515D01*
X1979Y1512D01*
X1976Y1509D01*
X1974Y1503D01*
Y1497D01*
X1976Y1491D01*
X1981Y1486D01*
X1987Y1484D01*
X1993D01*
X1999Y1486D01*
X2002Y1489D01*
X2005Y1490D01*
X2008Y1489D01*
X2011Y1486D01*
X2017Y1484D01*
X2023D01*
X2029Y1486D01*
X2032Y1489D01*
X2035Y1490D01*
X2038Y1489D01*
X2041Y1486D01*
X2047Y1484D01*
X2053D01*
X2059Y1486D01*
X2062Y1489D01*
X2065Y1490D01*
X2068Y1489D01*
X2071Y1486D01*
X2077Y1484D01*
X2083D01*
X2089Y1486D01*
X2092Y1489D01*
X2095Y1490D01*
X2098Y1489D01*
X2101Y1486D01*
X2107Y1484D01*
X2113D01*
X2119Y1486D01*
X2122Y1489D01*
X2125Y1490D01*
X2128Y1489D01*
X2131Y1486D01*
X2137Y1484D01*
X2143D01*
X2149Y1486D01*
X2152Y1489D01*
X2155Y1490D01*
X2158Y1489D01*
X2161Y1486D01*
X2167Y1484D01*
X2173D01*
X2179Y1486D01*
X2184Y1491D01*
X2186Y1497D01*
Y1503D01*
X2184Y1509D01*
X2181Y1512D01*
X2180Y1515D01*
X2181Y1518D01*
X2184Y1521D01*
X2186Y1527D01*
Y1533D01*
X2184Y1539D01*
X2181Y1542D01*
X2180Y1545D01*
X2181Y1548D01*
X2184Y1551D01*
X2186Y1557D01*
Y1563D01*
X2184Y1569D01*
X2181Y1572D01*
X2180Y1575D01*
X2181Y1578D01*
X2184Y1581D01*
X2186Y1587D01*
Y1593D01*
X2184Y1599D01*
X2181Y1602D01*
X2180Y1605D01*
X2182Y1608D01*
X2185Y1610D01*
X2188Y1609D01*
X2191Y1606D01*
X2197Y1604D01*
X2203D01*
X2209Y1606D01*
X2214Y1611D01*
X2216Y1617D01*
Y1623D01*
X2214Y1629D01*
X2209Y1634D01*
X2203Y1636D01*
X2197D01*
X2191Y1634D01*
X2188Y1631D01*
X2185Y1630D01*
X2182Y1631D01*
X2179Y1634D01*
X2173Y1636D01*
X2167D01*
X2161Y1634D01*
X2158Y1631D01*
X2155Y1630D01*
X2152Y1631D01*
X2149Y1634D01*
X2143Y1636D01*
X2137D01*
X2131Y1634D01*
X2128Y1631D01*
X2125Y1630D01*
X2122Y1631D01*
X2119Y1634D01*
X2113Y1636D01*
X2107D01*
X2101Y1634D01*
X2098Y1631D01*
X2095Y1630D01*
X2092Y1631D01*
X2089Y1634D01*
X2083Y1636D01*
X2077D01*
X2071Y1634D01*
X2068Y1631D01*
X2065Y1630D01*
X2062Y1631D01*
X2061Y1632D01*
X2060Y1635D01*
X2061Y1638D01*
X2064Y1641D01*
X2066Y1647D01*
Y1653D01*
X2064Y1659D01*
X2061Y1662D01*
X2060Y1665D01*
X2061Y1668D01*
X2064Y1671D01*
X2066Y1677D01*
Y1683D01*
X2064Y1689D01*
X2059Y1694D01*
X2053Y1696D01*
X2051D01*
X2047Y1697D01*
X2046Y1701D01*
Y1703D01*
X2044Y1709D01*
X2041Y1712D01*
X2040Y1715D01*
X2041Y1718D01*
X2044Y1721D01*
X2046Y1727D01*
Y1733D01*
X2044Y1739D01*
X2039Y1744D01*
X2033Y1746D01*
D02*
G37*
G36*
X1673Y1616D02*
X1667D01*
X1661Y1614D01*
X1656Y1609D01*
X1654Y1603D01*
Y1597D01*
X1656Y1591D01*
X1661Y1586D01*
X1667Y1584D01*
X1673D01*
X1679Y1586D01*
X1684Y1591D01*
X1686Y1597D01*
Y1603D01*
X1684Y1609D01*
X1679Y1614D01*
X1673Y1616D01*
D02*
G37*
G36*
X1270Y1608D02*
X1264D01*
X1258Y1605D01*
X1254Y1601D01*
X1251Y1595D01*
Y1588D01*
X1254Y1583D01*
X1258Y1578D01*
X1264Y1576D01*
X1270D01*
X1276Y1578D01*
X1281Y1583D01*
X1283Y1588D01*
Y1595D01*
X1281Y1601D01*
X1276Y1605D01*
X1270Y1608D01*
D02*
G37*
G36*
X1673Y1546D02*
X1667D01*
X1661Y1544D01*
X1656Y1539D01*
X1654Y1533D01*
Y1527D01*
X1656Y1521D01*
X1661Y1516D01*
X1667Y1514D01*
X1673D01*
X1679Y1516D01*
X1684Y1521D01*
X1686Y1527D01*
Y1533D01*
X1684Y1539D01*
X1679Y1544D01*
X1673Y1546D01*
D02*
G37*
G36*
X1160Y1538D02*
X1154D01*
X1148Y1535D01*
X1144Y1531D01*
X1141Y1525D01*
Y1518D01*
X1144Y1513D01*
X1148Y1508D01*
X1154Y1506D01*
X1160D01*
X1166Y1508D01*
X1171Y1513D01*
X1173Y1518D01*
Y1525D01*
X1171Y1531D01*
X1166Y1535D01*
X1160Y1538D01*
D02*
G37*
G36*
X2113Y1476D02*
X2107D01*
X2101Y1474D01*
X2098Y1471D01*
X2095Y1470D01*
X2092Y1471D01*
X2089Y1474D01*
X2083Y1476D01*
X2077D01*
X2071Y1474D01*
X2068Y1471D01*
X2065Y1470D01*
X2062Y1471D01*
X2059Y1474D01*
X2053Y1476D01*
X2047D01*
X2041Y1474D01*
X2038Y1471D01*
X2035Y1470D01*
X2032Y1471D01*
X2029Y1474D01*
X2023Y1476D01*
X2017D01*
X2011Y1474D01*
X2008Y1471D01*
X2005Y1470D01*
X2002Y1471D01*
X1999Y1474D01*
X1993Y1476D01*
X1987D01*
X1981Y1474D01*
X1976Y1469D01*
X1974Y1463D01*
Y1457D01*
X1976Y1451D01*
X1979Y1448D01*
X1980Y1445D01*
X1979Y1442D01*
X1976Y1439D01*
X1974Y1433D01*
Y1427D01*
X1976Y1421D01*
X1981Y1416D01*
X1987Y1414D01*
X1993D01*
X1999Y1416D01*
X2002Y1419D01*
X2005Y1420D01*
X2008Y1419D01*
X2011Y1416D01*
X2017Y1414D01*
X2023D01*
X2029Y1416D01*
X2032Y1419D01*
X2035Y1420D01*
X2038Y1419D01*
X2041Y1416D01*
X2047Y1414D01*
X2053D01*
X2059Y1416D01*
X2062Y1419D01*
X2065Y1420D01*
X2068Y1419D01*
X2071Y1416D01*
X2077Y1414D01*
X2083D01*
X2089Y1416D01*
X2092Y1419D01*
X2095Y1420D01*
X2098Y1419D01*
X2101Y1416D01*
X2107Y1414D01*
X2113D01*
X2119Y1416D01*
X2124Y1421D01*
X2126Y1427D01*
Y1433D01*
X2124Y1439D01*
X2121Y1442D01*
X2120Y1445D01*
X2121Y1448D01*
X2124Y1451D01*
X2126Y1457D01*
Y1463D01*
X2124Y1469D01*
X2119Y1474D01*
X2113Y1476D01*
D02*
G37*
G36*
X1452Y1464D02*
X1445D01*
X1439Y1462D01*
X1435Y1457D01*
X1432Y1452D01*
Y1445D01*
X1435Y1439D01*
X1439Y1435D01*
X1445Y1432D01*
X1452D01*
X1458Y1435D01*
X1462Y1439D01*
X1464Y1445D01*
Y1452D01*
X1462Y1457D01*
X1458Y1462D01*
X1452Y1464D01*
D02*
G37*
G36*
X1193Y1446D02*
X1187D01*
X1181Y1444D01*
X1176Y1439D01*
X1174Y1433D01*
Y1427D01*
X1176Y1421D01*
X1181Y1416D01*
X1187Y1414D01*
X1193D01*
X1199Y1416D01*
X1204Y1421D01*
X1206Y1427D01*
Y1433D01*
X1204Y1439D01*
X1199Y1444D01*
X1193Y1446D01*
D02*
G37*
G36*
X1954Y1361D02*
X1948D01*
X1942Y1358D01*
X1938Y1354D01*
X1935Y1348D01*
Y1342D01*
X1938Y1336D01*
X1942Y1331D01*
X1948Y1329D01*
X1954D01*
X1960Y1331D01*
X1965Y1336D01*
X1967Y1342D01*
Y1348D01*
X1965Y1354D01*
X1960Y1358D01*
X1954Y1361D01*
D02*
G37*
G36*
Y1304D02*
X1948D01*
X1942Y1302D01*
X1938Y1297D01*
X1935Y1292D01*
Y1285D01*
X1938Y1279D01*
X1942Y1275D01*
X1948Y1272D01*
X1954D01*
X1960Y1275D01*
X1965Y1279D01*
X1967Y1285D01*
Y1292D01*
X1965Y1297D01*
X1960Y1302D01*
X1954Y1304D01*
D02*
G37*
G36*
X2246Y1248D02*
X2239D01*
X2234Y1245D01*
X2231Y1242D01*
X2228Y1241D01*
X2224Y1242D01*
X2222Y1245D01*
X2216Y1248D01*
X2209D01*
X2204Y1245D01*
X2201Y1242D01*
X2198Y1241D01*
X2194Y1242D01*
X2192Y1245D01*
X2186Y1248D01*
X2179D01*
X2174Y1245D01*
X2171Y1242D01*
X2168Y1241D01*
X2164Y1242D01*
X2162Y1245D01*
X2156Y1248D01*
X2149D01*
X2144Y1245D01*
X2141Y1242D01*
X2138Y1241D01*
X2134Y1242D01*
X2132Y1245D01*
X2126Y1248D01*
X2119D01*
X2114Y1245D01*
X2111Y1242D01*
X2108Y1241D01*
X2104Y1242D01*
X2102Y1245D01*
X2096Y1248D01*
X2089D01*
X2084Y1245D01*
X2081Y1242D01*
X2078Y1241D01*
X2074Y1242D01*
X2072Y1245D01*
X2066Y1248D01*
X2059D01*
X2054Y1245D01*
X2051Y1242D01*
X2048Y1241D01*
X2044Y1242D01*
X2042Y1245D01*
X2036Y1248D01*
X2029D01*
X2024Y1245D01*
X2021Y1242D01*
X2018Y1241D01*
X2014Y1242D01*
X2012Y1245D01*
X2006Y1248D01*
X1999D01*
X1994Y1245D01*
X1991Y1242D01*
X1988Y1241D01*
X1984Y1242D01*
X1982Y1245D01*
X1976Y1248D01*
X1969D01*
X1964Y1245D01*
X1961Y1242D01*
X1958Y1241D01*
X1954Y1242D01*
X1952Y1245D01*
X1946Y1248D01*
X1939D01*
X1934Y1245D01*
X1931Y1242D01*
X1928Y1241D01*
X1924Y1242D01*
X1922Y1245D01*
X1916Y1248D01*
X1909D01*
X1904Y1245D01*
X1901Y1242D01*
X1898Y1241D01*
X1894Y1242D01*
X1892Y1245D01*
X1886Y1248D01*
X1879D01*
X1874Y1245D01*
X1871Y1242D01*
X1868Y1241D01*
X1864Y1242D01*
X1862Y1245D01*
X1856Y1248D01*
X1849D01*
X1844Y1245D01*
X1839Y1241D01*
X1837Y1235D01*
Y1228D01*
X1839Y1222D01*
X1842Y1220D01*
X1843Y1217D01*
X1842Y1213D01*
X1839Y1211D01*
X1837Y1205D01*
Y1198D01*
X1839Y1192D01*
X1842Y1190D01*
X1843Y1187D01*
X1842Y1183D01*
X1839Y1181D01*
X1837Y1175D01*
Y1168D01*
X1839Y1162D01*
X1843Y1159D01*
X1843Y1156D01*
X1843Y1153D01*
X1839Y1149D01*
X1837Y1143D01*
Y1137D01*
X1839Y1131D01*
X1844Y1126D01*
X1849Y1124D01*
X1856D01*
X1862Y1126D01*
X1864Y1129D01*
X1868Y1130D01*
X1871Y1129D01*
X1874Y1126D01*
X1879Y1124D01*
X1886D01*
X1892Y1126D01*
X1894Y1129D01*
X1898Y1130D01*
X1901Y1129D01*
X1904Y1126D01*
X1909Y1124D01*
X1916D01*
X1922Y1126D01*
X1924Y1129D01*
X1928Y1130D01*
X1931Y1129D01*
X1934Y1126D01*
X1939Y1124D01*
X1946D01*
X1952Y1126D01*
X1954Y1129D01*
X1958Y1130D01*
X1961Y1129D01*
X1964Y1126D01*
X1969Y1124D01*
X1976D01*
X1982Y1126D01*
X1984Y1129D01*
X1988Y1130D01*
X1991Y1129D01*
X1994Y1126D01*
X1999Y1124D01*
X2006D01*
X2012Y1126D01*
X2014Y1129D01*
X2018Y1130D01*
X2021Y1129D01*
X2024Y1126D01*
X2029Y1124D01*
X2036D01*
X2042Y1126D01*
X2044Y1129D01*
X2048Y1130D01*
X2051Y1129D01*
X2054Y1126D01*
X2059Y1124D01*
X2066D01*
X2072Y1126D01*
X2074Y1129D01*
X2078Y1130D01*
X2081Y1129D01*
X2084Y1126D01*
X2089Y1124D01*
X2096D01*
X2102Y1126D01*
X2104Y1129D01*
X2108Y1130D01*
X2111Y1129D01*
X2114Y1126D01*
X2119Y1124D01*
X2126D01*
X2132Y1126D01*
X2134Y1129D01*
X2138Y1130D01*
X2141Y1129D01*
X2144Y1126D01*
X2149Y1124D01*
X2156D01*
X2162Y1126D01*
X2164Y1129D01*
X2168Y1130D01*
X2171Y1129D01*
X2174Y1126D01*
X2179Y1124D01*
X2186D01*
X2192Y1126D01*
X2194Y1129D01*
X2198Y1130D01*
X2201Y1129D01*
X2204Y1126D01*
X2209Y1124D01*
X2216D01*
X2222Y1126D01*
X2224Y1129D01*
X2228Y1130D01*
X2231Y1129D01*
X2234Y1126D01*
X2239Y1124D01*
X2246D01*
X2252Y1126D01*
X2256Y1131D01*
X2259Y1137D01*
Y1143D01*
X2256Y1149D01*
X2252Y1153D01*
X2252Y1156D01*
X2252Y1159D01*
X2256Y1162D01*
X2259Y1168D01*
Y1175D01*
X2256Y1181D01*
X2253Y1183D01*
X2252Y1187D01*
X2253Y1190D01*
X2256Y1192D01*
X2259Y1198D01*
Y1205D01*
X2256Y1211D01*
X2253Y1213D01*
X2252Y1217D01*
X2253Y1220D01*
X2256Y1222D01*
X2259Y1228D01*
Y1235D01*
X2256Y1241D01*
X2252Y1245D01*
X2246Y1248D01*
D02*
G37*
G36*
X1513Y1196D02*
X1507D01*
X1501Y1194D01*
X1496Y1189D01*
X1494Y1183D01*
Y1177D01*
X1496Y1171D01*
X1501Y1166D01*
X1507Y1164D01*
X1513D01*
X1519Y1166D01*
X1524Y1171D01*
X1526Y1177D01*
Y1183D01*
X1524Y1189D01*
X1519Y1194D01*
X1513Y1196D01*
D02*
G37*
G36*
X2165Y1097D02*
X2092D01*
Y1023D01*
X2165D01*
Y1097D01*
D02*
G37*
G36*
X2055D02*
X2045D01*
X2036Y1094D01*
X2028Y1089D01*
X2021Y1082D01*
X2016Y1074D01*
X2013Y1065D01*
Y1055D01*
X2016Y1046D01*
X2021Y1038D01*
X2028Y1031D01*
X2036Y1026D01*
X2045Y1023D01*
X2055D01*
X2064Y1026D01*
X2072Y1031D01*
X2079Y1038D01*
X2084Y1046D01*
X2087Y1055D01*
Y1065D01*
X2084Y1074D01*
X2079Y1082D01*
X2072Y1089D01*
X2064Y1094D01*
X2055Y1097D01*
D02*
G37*
G36*
X1976D02*
X1966D01*
X1957Y1094D01*
X1949Y1089D01*
X1942Y1082D01*
X1937Y1074D01*
X1935Y1065D01*
Y1055D01*
X1937Y1046D01*
X1942Y1038D01*
X1949Y1031D01*
X1957Y1026D01*
X1966Y1023D01*
X1976D01*
X1985Y1026D01*
X1994Y1031D01*
X2001Y1038D01*
X2005Y1046D01*
X2008Y1055D01*
Y1065D01*
X2005Y1074D01*
X2001Y1082D01*
X1994Y1089D01*
X1985Y1094D01*
X1976Y1097D01*
D02*
G37*
%LPD*%
D48*
X1070Y1310D02*
D03*
Y1231D02*
D03*
D49*
Y1389D02*
D03*
D50*
X1280Y2055D02*
D03*
X1480D02*
D03*
X1680D02*
D03*
D51*
X1246Y1351D02*
D03*
X1461Y1606D02*
D03*
X1411Y1596D02*
D03*
X1502Y1216D02*
D03*
X1490Y1360D02*
D03*
X1291Y1083D02*
D03*
X1609Y1741D02*
D03*
X1569D02*
D03*
X1690Y1380D02*
D03*
X1637D02*
D03*
X1587D02*
D03*
X1736Y1281D02*
D03*
X1699D02*
D03*
X1669D02*
D03*
X1639D02*
D03*
X1723Y1380D02*
D03*
X1715Y1643D02*
D03*
X1699Y1671D02*
D03*
X1689Y1701D02*
D03*
X1659D02*
D03*
X1730Y1539D02*
D03*
Y1569D02*
D03*
Y1599D02*
D03*
Y1507D02*
D03*
X2560Y1490D02*
D03*
Y1400D02*
D03*
Y1430D02*
D03*
Y1460D02*
D03*
X2510Y1390D02*
D03*
Y1300D02*
D03*
Y1330D02*
D03*
Y1360D02*
D03*
Y1600D02*
D03*
Y1510D02*
D03*
Y1540D02*
D03*
Y1570D02*
D03*
X1590Y1065D02*
D03*
X1680Y1090D02*
D03*
M02*
