G04*
G04 #@! TF.GenerationSoftware,Altium Limited,Altium Designer,21.2.2 (38)*
G04*
G04 Layer_Physical_Order=1*
G04 Layer_Color=255*
%FSLAX23Y23*%
%MOIN*%
G70*
G04*
G04 #@! TF.SameCoordinates,6939E313-D8E2-45C8-8463-115B02E7E026*
G04*
G04*
G04 #@! TF.FilePolarity,Positive*
G04*
G01*
G75*
%ADD12C,0.010*%
%ADD13R,0.019X0.020*%
%ADD14R,0.140X0.071*%
%ADD15R,0.079X0.152*%
%ADD16R,0.058X0.041*%
%ADD17R,0.030X0.047*%
%ADD18R,0.057X0.037*%
%ADD19R,0.022X0.071*%
%ADD20R,0.020X0.019*%
%ADD21R,0.031X0.039*%
%ADD22R,0.024X0.026*%
%ADD23R,0.014X0.006*%
%ADD24R,0.025X0.048*%
%ADD25R,0.048X0.025*%
%ADD44C,0.006*%
%ADD45C,0.005*%
%ADD46C,0.007*%
%ADD47R,0.053X0.053*%
%ADD48C,0.053*%
%ADD49R,0.053X0.053*%
%ADD50C,0.098*%
%ADD51C,0.012*%
G36*
X2580Y2190D02*
X2580Y1713D01*
X2519Y1651D01*
X2369D01*
X2339Y1681D01*
Y1821D01*
X2309Y1851D01*
X1849Y1851D01*
X1780Y1920D01*
X1780Y2190D01*
X1820Y2230D01*
X2540Y2230D01*
X2580Y2190D01*
D02*
G37*
G36*
X2270Y1830D02*
X2310Y1790D01*
X2310Y1350D01*
X2290Y1330D01*
X1800Y1330D01*
X1790Y1340D01*
X1790Y1820D01*
X1800Y1830D01*
X2270Y1830D01*
D02*
G37*
G36*
X2550Y1640D02*
X2580Y1610D01*
X2580Y1290D01*
X2550Y1260D01*
X2370D01*
X2360Y1270D01*
Y1315D01*
X2320Y1355D01*
X2320Y1620D01*
X2329Y1629D01*
X2369Y1629D01*
X2380Y1640D01*
X2550Y1640D01*
D02*
G37*
G36*
X1738Y1860D02*
X1769Y1829D01*
Y1212D01*
X1608D01*
X1540Y1280D01*
Y1820D01*
X1580Y1860D01*
X1738Y1860D01*
D02*
G37*
G36*
X2300Y1270D02*
Y1040D01*
X2270Y1010D01*
X1810D01*
X1790Y1030D01*
X1790Y1130D01*
X1780Y1140D01*
X1630D01*
X1620Y1150D01*
X1620Y1190D01*
X1630Y1200D01*
X1780D01*
X1790Y1210D01*
X1790Y1290D01*
X1810Y1310D01*
X2260D01*
X2300Y1270D01*
D02*
G37*
G36*
X2560Y3560D02*
X2560Y3350D01*
X2550Y3340D01*
X2480Y3340D01*
X2471Y3340D01*
X2470Y3340D01*
X2410D01*
X2390Y3360D01*
X2381D01*
X2380Y3360D01*
X2290D01*
X2289Y3360D01*
X2280D01*
X2270Y3350D01*
X2190D01*
X2180Y3360D01*
X2180Y3520D01*
X2240Y3580D01*
X2540D01*
X2560Y3560D01*
D02*
G37*
G36*
X2400Y3330D02*
X2470D01*
X2490Y3310D01*
X2490Y3278D01*
X2508Y3261D01*
X2519Y3261D01*
X2530Y3250D01*
X2530Y3220D01*
X2520Y3210D01*
X2290Y3210D01*
X2280Y3220D01*
Y3340D01*
X2290Y3350D01*
X2380D01*
X2400Y3330D01*
D02*
G37*
G36*
X2160Y3560D02*
Y3160D01*
X2070Y3070D01*
X1930Y3070D01*
X1840Y3160D01*
X1840Y3560D01*
X1860Y3580D01*
X2140D01*
X2160Y3560D01*
D02*
G37*
G36*
X1730Y3270D02*
X1730Y3150D01*
X1830Y3050D01*
X1980D01*
X2060Y2970D01*
X2140Y2970D01*
X2180Y3010D01*
Y3180D01*
X2190Y3190D01*
X2510D01*
X2550Y3150D01*
X2550Y2720D01*
X2530Y2700D01*
X2030Y2700D01*
X2010Y2720D01*
X2010Y2890D01*
X1910Y2990D01*
X1891D01*
X1890Y2990D01*
X1820D01*
X1690Y3120D01*
Y3230D01*
X1590Y3330D01*
X1224Y3330D01*
X1192Y3298D01*
X1192Y3252D01*
X1180Y3240D01*
X1120Y3240D01*
X1110Y3250D01*
X1110Y3328D01*
X1148Y3370D01*
X1630Y3370D01*
X1730Y3270D01*
D02*
G37*
G36*
X1970Y2900D02*
Y2540D01*
X1880Y2450D01*
X1680Y2450D01*
X1610Y2520D01*
Y2890D01*
X1700Y2980D01*
X1890D01*
X1970Y2900D01*
D02*
G37*
%LPC*%
G36*
X1673Y1616D02*
X1667D01*
X1661Y1614D01*
X1656Y1609D01*
X1654Y1603D01*
Y1597D01*
X1656Y1591D01*
X1661Y1586D01*
X1667Y1584D01*
X1673D01*
X1679Y1586D01*
X1684Y1591D01*
X1686Y1597D01*
Y1603D01*
X1684Y1609D01*
X1679Y1614D01*
X1673Y1616D01*
D02*
G37*
G36*
Y1546D02*
X1667D01*
X1661Y1544D01*
X1656Y1539D01*
X1654Y1533D01*
Y1527D01*
X1656Y1521D01*
X1661Y1516D01*
X1667Y1514D01*
X1673D01*
X1679Y1516D01*
X1684Y1521D01*
X1686Y1527D01*
Y1533D01*
X1684Y1539D01*
X1679Y1544D01*
X1673Y1546D01*
D02*
G37*
%LPD*%
D12*
X2624Y830D02*
Y850D01*
X1004Y830D02*
Y850D01*
X2564Y820D02*
X2624Y840D01*
X2564Y860D02*
X2624Y840D01*
X1004D02*
X1064Y820D01*
X1004Y840D02*
X1064Y860D01*
X2120Y840D02*
X2624D01*
X1004D02*
X1508D01*
X2878Y3595D02*
X2898D01*
X2878Y979D02*
X2898D01*
X2888Y3595D02*
X2908Y3535D01*
X2868D02*
X2888Y3595D01*
Y979D02*
X2908Y1039D01*
X2868D02*
X2888Y979D01*
Y2603D02*
Y3595D01*
Y979D02*
Y1971D01*
X1280Y1990D02*
Y2055D01*
X1230Y1940D02*
X1280Y1990D01*
X1190Y1940D02*
X1230D01*
X1250Y1370D02*
Y1390D01*
X1246Y1366D02*
X1250Y1370D01*
X1246Y1351D02*
X1246Y1351D01*
Y1366D01*
X1232Y1278D02*
X1412D01*
X1190Y1320D02*
Y1430D01*
Y1320D02*
X1232Y1278D01*
X1070Y1389D02*
X1120Y1439D01*
Y1590D01*
X1411Y1596D02*
Y1639D01*
X1388Y1662D02*
X1411Y1639D01*
X1340Y1662D02*
X1388D01*
X1412Y1278D02*
X1510Y1180D01*
X1074Y1839D02*
Y2055D01*
Y1839D02*
X1160Y1754D01*
Y1590D02*
Y1754D01*
X1126Y1965D02*
Y2055D01*
X1150Y1940D02*
Y1940D01*
X1126Y1965D02*
X1150Y1940D01*
X1342Y1520D02*
X1380D01*
X1340Y1518D02*
X1342Y1520D01*
X1385Y1525D02*
X1410D01*
X1380Y1520D02*
X1385Y1525D01*
X1410D02*
X1410Y1525D01*
X1460Y1500D02*
Y1533D01*
X1410Y1525D02*
X1453D01*
X1460Y1533D02*
Y1533D01*
X1453Y1525D02*
X1460Y1533D01*
X1420Y1460D02*
X1460Y1500D01*
X1350Y1460D02*
X1420D01*
X1309Y1459D02*
X1310Y1460D01*
X1309Y1381D02*
Y1459D01*
X1308Y1380D02*
X1309Y1381D01*
Y1459D02*
X1310Y1460D01*
X1410Y1595D02*
X1411Y1595D01*
X1410Y1566D02*
Y1595D01*
X1411Y1595D02*
Y1596D01*
X1460Y1605D02*
X1461Y1605D01*
X1460Y1567D02*
Y1605D01*
X1461Y1605D02*
Y1606D01*
X1448Y1448D02*
Y1448D01*
X1452Y1380D02*
Y1444D01*
X1448Y1448D02*
X1452Y1444D01*
D13*
X1310Y1460D02*
D03*
X1350D02*
D03*
X1083Y2731D02*
D03*
X1123D02*
D03*
X1190Y1940D02*
D03*
X1150D02*
D03*
X1280Y2970D02*
D03*
X1240D02*
D03*
X1330Y3020D02*
D03*
X1370D02*
D03*
X1410Y3080D02*
D03*
X1450D02*
D03*
X1280Y3110D02*
D03*
X1320D02*
D03*
X1210Y1490D02*
D03*
X1250D02*
D03*
X1160Y1590D02*
D03*
X1120D02*
D03*
D14*
X1867Y1790D02*
D03*
X1633D02*
D03*
X2467Y1440D02*
D03*
X2233D02*
D03*
X1633D02*
D03*
X1867D02*
D03*
D15*
X2230Y3430D02*
D03*
Y3090D02*
D03*
D16*
X1740Y1233D02*
D03*
Y1167D02*
D03*
X1660Y1233D02*
D03*
Y1167D02*
D03*
D17*
X2500Y3103D02*
D03*
Y3237D02*
D03*
D18*
X1140Y2831D02*
D03*
Y2909D02*
D03*
D19*
X1074Y2055D02*
D03*
X1126D02*
D03*
Y2425D02*
D03*
X1074D02*
D03*
D20*
X1140Y2671D02*
D03*
Y2631D02*
D03*
X1250Y1430D02*
D03*
Y1390D02*
D03*
X1410Y1566D02*
D03*
Y1525D02*
D03*
D21*
X1308Y3260D02*
D03*
X1252D02*
D03*
D22*
X1450Y3123D02*
D03*
Y3157D02*
D03*
X1460Y1533D02*
D03*
Y1567D02*
D03*
D23*
X1266Y1536D02*
D03*
Y1550D02*
D03*
Y1564D02*
D03*
X1220D02*
D03*
Y1550D02*
D03*
Y1536D02*
D03*
D24*
X1308Y1380D02*
D03*
X1452D02*
D03*
D25*
X1340Y1518D02*
D03*
Y1662D02*
D03*
D44*
X1206Y2671D02*
X1230Y2695D01*
X1140Y2671D02*
X1206D01*
X1221Y2731D02*
X1228Y2724D01*
X1123Y2731D02*
X1221D01*
X1228Y2724D02*
X1230D01*
X1320Y3110D02*
Y3168D01*
X1301Y3187D02*
X1320Y3168D01*
X1331Y3187D02*
X1361Y3157D01*
X1450D01*
X1252Y3206D02*
Y3260D01*
Y3206D02*
X1271Y3187D01*
X1241Y2971D02*
Y3187D01*
X1240Y2970D02*
X1241Y2971D01*
X1240Y2970D02*
X1240D01*
X1074Y2425D02*
Y2467D01*
X1060Y2482D02*
Y2720D01*
Y2482D02*
X1074Y2467D01*
X1060Y2720D02*
X1068Y2728D01*
X1080D02*
X1083Y2731D01*
X1068Y2728D02*
X1080D01*
X1083Y2730D02*
Y2813D01*
X1181Y2831D02*
X1217Y2867D01*
X1101Y2831D02*
X1181D01*
X1217Y2867D02*
Y3056D01*
X1083Y2813D02*
X1101Y2831D01*
X1208Y3065D02*
X1217Y3056D01*
X1130Y3210D02*
X1140Y3200D01*
Y2909D02*
Y3200D01*
X1126Y2425D02*
X1130Y2429D01*
Y2480D01*
X1140Y2490D01*
Y2631D01*
X1280Y3074D02*
X1284Y3070D01*
X1280Y3074D02*
Y3110D01*
X1309Y3070D02*
X1319Y3080D01*
X1410D01*
X1450Y3080D02*
X1450Y3080D01*
X1450Y3080D02*
Y3123D01*
X1370Y2980D02*
Y3020D01*
X1360Y2970D02*
X1370Y2980D01*
X1330Y2980D02*
Y3020D01*
X1320Y2970D02*
X1330Y2980D01*
X1280Y2970D02*
X1320D01*
X1548Y804D02*
Y864D01*
X1518Y834D01*
X1558D01*
X1578Y804D02*
X1598D01*
X1588D01*
Y864D01*
X1578Y854D01*
X1628Y804D02*
Y814D01*
X1638D01*
Y804D01*
X1628D01*
X1678D02*
X1698D01*
X1688D01*
Y864D01*
X1678Y854D01*
X1758Y804D02*
Y864D01*
X1728Y834D01*
X1768D01*
X1788Y854D02*
X1798Y864D01*
X1818D01*
X1828Y854D01*
Y844D01*
X1818Y834D01*
X1828Y824D01*
Y814D01*
X1818Y804D01*
X1798D01*
X1788Y814D01*
Y824D01*
X1798Y834D01*
X1788Y844D01*
Y854D01*
X1798Y834D02*
X1818D01*
X1928Y804D02*
X1908Y824D01*
Y844D01*
X1928Y864D01*
X1958Y804D02*
Y844D01*
X1968D01*
X1978Y834D01*
Y804D01*
Y834D01*
X1988Y844D01*
X1998Y834D01*
Y804D01*
X2018D02*
Y844D01*
X2028D01*
X2038Y834D01*
Y804D01*
Y834D01*
X2048Y844D01*
X2058Y834D01*
Y804D01*
X2078D02*
X2098Y824D01*
Y844D01*
X2078Y864D01*
X2864Y2021D02*
X2874Y2001D01*
X2894Y1981D01*
X2914D01*
X2924Y1991D01*
Y2011D01*
X2914Y2021D01*
X2904D01*
X2894Y2011D01*
Y1981D01*
X2864Y2081D02*
X2874Y2061D01*
X2894Y2041D01*
X2914D01*
X2924Y2051D01*
Y2071D01*
X2914Y2081D01*
X2904D01*
X2894Y2071D01*
Y2041D01*
X2924Y2101D02*
X2914D01*
Y2111D01*
X2924D01*
Y2101D01*
Y2181D02*
X2864D01*
X2894Y2151D01*
Y2191D01*
X2924Y2241D02*
X2864D01*
X2894Y2211D01*
Y2251D01*
X2874Y2271D02*
X2864Y2281D01*
Y2301D01*
X2874Y2311D01*
X2884D01*
X2894Y2301D01*
Y2291D01*
Y2301D01*
X2904Y2311D01*
X2914D01*
X2924Y2301D01*
Y2281D01*
X2914Y2271D01*
X2924Y2411D02*
X2904Y2391D01*
X2884D01*
X2864Y2411D01*
X2924Y2441D02*
X2884D01*
Y2451D01*
X2894Y2461D01*
X2924D01*
X2894D01*
X2884Y2471D01*
X2894Y2481D01*
X2924D01*
Y2501D02*
X2884D01*
Y2511D01*
X2894Y2521D01*
X2924D01*
X2894D01*
X2884Y2531D01*
X2894Y2541D01*
X2924D01*
Y2561D02*
X2904Y2581D01*
X2884D01*
X2864Y2561D01*
D45*
X1133Y1497D02*
Y1533D01*
Y1497D02*
X1140Y1490D01*
X1133Y1533D02*
X1150Y1550D01*
X1266Y1564D02*
X1275D01*
X1278Y1567D02*
Y1581D01*
X1275Y1564D02*
X1278Y1567D01*
X1266Y1564D02*
X1266Y1564D01*
X1267Y1592D02*
X1278Y1581D01*
X1157Y1522D02*
X1172Y1536D01*
X1220D01*
X1150Y1550D02*
X1220D01*
X1250Y1430D02*
X1250Y1430D01*
Y1490D02*
Y1521D01*
Y1430D02*
Y1490D01*
X1140D02*
X1210D01*
X1209Y1564D02*
X1220D01*
X1160Y1590D02*
X1184D01*
X1220Y1564D02*
X1220Y1564D01*
X1184Y1590D02*
X1209Y1564D01*
X1240Y1535D02*
X1242Y1537D01*
Y1554D01*
X1250Y1521D02*
X1266Y1536D01*
X1340Y1518D02*
Y1540D01*
X1330Y1550D02*
X1340Y1540D01*
X1266Y1550D02*
X1330D01*
D46*
X1308Y3260D02*
X1310Y3262D01*
Y3300D01*
D47*
X1911Y3530D02*
D03*
X2129Y1060D02*
D03*
D48*
X1990Y3530D02*
D03*
X2069D02*
D03*
X2510Y3461D02*
D03*
Y3383D02*
D03*
X2050Y1060D02*
D03*
X1971D02*
D03*
X1070Y1310D02*
D03*
Y1231D02*
D03*
D49*
X2510Y3540D02*
D03*
X1070Y1389D02*
D03*
D50*
X1280Y2855D02*
D03*
X1480D02*
D03*
X1680D02*
D03*
X2080D02*
D03*
X2480D02*
D03*
X1880D02*
D03*
X2280D02*
D03*
X1280Y2055D02*
D03*
X1480D02*
D03*
X1680D02*
D03*
X2080D02*
D03*
X2480D02*
D03*
X1880D02*
D03*
X2280D02*
D03*
D51*
X1246Y1351D02*
D03*
X1267Y1592D02*
D03*
X1157Y1522D02*
D03*
X1190Y1430D02*
D03*
X1510Y1180D02*
D03*
X1461Y1606D02*
D03*
X1411Y1596D02*
D03*
X1448Y1448D02*
D03*
X1502Y1216D02*
D03*
X1490Y1360D02*
D03*
X1291Y1083D02*
D03*
X1670Y1600D02*
D03*
Y1530D02*
D03*
X1951Y1288D02*
D03*
Y1345D02*
D03*
X1230Y2752D02*
D03*
X1260D02*
D03*
X1230Y2781D02*
D03*
X1260D02*
D03*
Y2724D02*
D03*
X1230D02*
D03*
X1260Y2695D02*
D03*
X1230D02*
D03*
X1260Y2666D02*
D03*
X1230D02*
D03*
X1260Y2637D02*
D03*
X1230D02*
D03*
X1260Y2609D02*
D03*
X1230D02*
D03*
X1260Y2580D02*
D03*
X1230D02*
D03*
X1609Y1741D02*
D03*
X1569D02*
D03*
X1690Y1380D02*
D03*
X1637D02*
D03*
X1587D02*
D03*
X1736Y1281D02*
D03*
X1699D02*
D03*
X1669D02*
D03*
X1639D02*
D03*
X1723Y1380D02*
D03*
X1715Y1643D02*
D03*
X1699Y1671D02*
D03*
X1689Y1701D02*
D03*
X1659D02*
D03*
X1730Y1539D02*
D03*
Y1569D02*
D03*
Y1599D02*
D03*
Y1507D02*
D03*
X2003Y1140D02*
D03*
X2033D02*
D03*
X1973D02*
D03*
X1943D02*
D03*
X1913D02*
D03*
X1883D02*
D03*
X1853D02*
D03*
X2213D02*
D03*
X2243D02*
D03*
X2183D02*
D03*
X2153D02*
D03*
X2123D02*
D03*
X2093D02*
D03*
X2063D02*
D03*
X2093Y1232D02*
D03*
X2063D02*
D03*
X2123D02*
D03*
X2063Y1202D02*
D03*
Y1172D02*
D03*
X2093D02*
D03*
Y1202D02*
D03*
X2123D02*
D03*
Y1172D02*
D03*
X2153D02*
D03*
X2183D02*
D03*
X2153Y1202D02*
D03*
X2183D02*
D03*
X2153Y1232D02*
D03*
X2183D02*
D03*
X2243D02*
D03*
X2213D02*
D03*
X2243Y1202D02*
D03*
X2213D02*
D03*
X2243Y1172D02*
D03*
X2213D02*
D03*
X1883Y1232D02*
D03*
X1853D02*
D03*
X1913D02*
D03*
X1853Y1202D02*
D03*
Y1172D02*
D03*
X1883D02*
D03*
Y1202D02*
D03*
X1913D02*
D03*
Y1172D02*
D03*
X1943D02*
D03*
X1973D02*
D03*
X1943Y1202D02*
D03*
X1973D02*
D03*
X1943Y1232D02*
D03*
X1973D02*
D03*
X2033D02*
D03*
X2003D02*
D03*
X2033Y1202D02*
D03*
X2003D02*
D03*
X2033Y1172D02*
D03*
X2003D02*
D03*
X2560Y1490D02*
D03*
Y1400D02*
D03*
Y1430D02*
D03*
Y1460D02*
D03*
X2510Y1390D02*
D03*
Y1300D02*
D03*
Y1330D02*
D03*
Y1360D02*
D03*
Y1600D02*
D03*
Y1510D02*
D03*
Y1540D02*
D03*
Y1570D02*
D03*
X1590Y1065D02*
D03*
X1680Y1090D02*
D03*
X1400Y3250D02*
D03*
X1331Y3187D02*
D03*
X1301D02*
D03*
X1271D02*
D03*
X1241D02*
D03*
X1121Y3308D02*
D03*
X1170Y3300D02*
D03*
X1150Y3320D02*
D03*
X2370Y3230D02*
D03*
X2400D02*
D03*
X2370Y3260D02*
D03*
X2400D02*
D03*
X2362Y2983D02*
D03*
Y2953D02*
D03*
X2392D02*
D03*
X2422D02*
D03*
X2392Y2983D02*
D03*
X2422D02*
D03*
X2482D02*
D03*
X2452D02*
D03*
X2482Y2953D02*
D03*
X2452D02*
D03*
X2305Y2954D02*
D03*
X2335D02*
D03*
X2305Y2984D02*
D03*
X2335D02*
D03*
X2275D02*
D03*
X2245D02*
D03*
X2275Y2954D02*
D03*
X2245D02*
D03*
X2215D02*
D03*
Y2984D02*
D03*
X2143Y2781D02*
D03*
Y2751D02*
D03*
Y2721D02*
D03*
X2173D02*
D03*
X2203D02*
D03*
X2173Y2751D02*
D03*
X2203D02*
D03*
X2173Y2781D02*
D03*
X2203D02*
D03*
X2263D02*
D03*
X2233D02*
D03*
X2263Y2751D02*
D03*
X2233D02*
D03*
X2263Y2721D02*
D03*
X2233D02*
D03*
X2380Y2720D02*
D03*
X2410D02*
D03*
X2380Y2750D02*
D03*
X2410D02*
D03*
X2380Y2780D02*
D03*
X2410D02*
D03*
X2350D02*
D03*
X2320D02*
D03*
X2350Y2750D02*
D03*
X2320D02*
D03*
X2350Y2720D02*
D03*
X2320D02*
D03*
X2290D02*
D03*
Y2750D02*
D03*
Y2780D02*
D03*
X2379Y1759D02*
D03*
Y1729D02*
D03*
Y1699D02*
D03*
X2409D02*
D03*
X2439D02*
D03*
X2409Y1729D02*
D03*
X2439D02*
D03*
X2409Y1759D02*
D03*
X2439D02*
D03*
X2499D02*
D03*
X2469D02*
D03*
X2499Y1729D02*
D03*
X2469D02*
D03*
X2499Y1699D02*
D03*
X2469D02*
D03*
X2409Y1849D02*
D03*
Y1819D02*
D03*
Y1789D02*
D03*
X2439D02*
D03*
X2469D02*
D03*
X2439Y1819D02*
D03*
X2469D02*
D03*
X2439Y1849D02*
D03*
X2469D02*
D03*
X2529D02*
D03*
X2499D02*
D03*
X2529Y1819D02*
D03*
X2499D02*
D03*
X2529Y1789D02*
D03*
X2499D02*
D03*
X1974Y1902D02*
D03*
X2004D02*
D03*
X1974Y1932D02*
D03*
X2004D02*
D03*
X1974Y1962D02*
D03*
X2004D02*
D03*
X1944D02*
D03*
X1914D02*
D03*
X1944Y1932D02*
D03*
X1914D02*
D03*
X1944Y1902D02*
D03*
X1914D02*
D03*
X1884D02*
D03*
Y1932D02*
D03*
Y1962D02*
D03*
X2474Y1892D02*
D03*
X2504D02*
D03*
X2474Y1922D02*
D03*
X2504D02*
D03*
X2474Y1952D02*
D03*
X2504D02*
D03*
X2444D02*
D03*
X2414D02*
D03*
X2444Y1922D02*
D03*
X2414D02*
D03*
X2444Y1892D02*
D03*
X2414D02*
D03*
X2384D02*
D03*
Y1922D02*
D03*
Y1952D02*
D03*
X1850Y2140D02*
D03*
Y2170D02*
D03*
Y2200D02*
D03*
X2387Y2199D02*
D03*
Y2169D02*
D03*
Y2139D02*
D03*
X2417D02*
D03*
X2447D02*
D03*
X2417Y2169D02*
D03*
X2447D02*
D03*
X2417Y2199D02*
D03*
X2447D02*
D03*
X2507D02*
D03*
X2477D02*
D03*
X2507Y2169D02*
D03*
X2477D02*
D03*
X2507Y2139D02*
D03*
X2477D02*
D03*
X2330Y2140D02*
D03*
X2360D02*
D03*
X2330Y2170D02*
D03*
X2360D02*
D03*
X2330Y2200D02*
D03*
X2360D02*
D03*
X2300D02*
D03*
X2270D02*
D03*
X2300Y2170D02*
D03*
X2270D02*
D03*
X2300Y2140D02*
D03*
X2270D02*
D03*
X2240D02*
D03*
Y2170D02*
D03*
X2210D02*
D03*
Y2140D02*
D03*
X2240Y2200D02*
D03*
X2210D02*
D03*
X2030D02*
D03*
X2000D02*
D03*
X2060D02*
D03*
X2000Y2170D02*
D03*
Y2140D02*
D03*
X2030D02*
D03*
Y2170D02*
D03*
X2060D02*
D03*
Y2140D02*
D03*
X2090D02*
D03*
X2120D02*
D03*
X2090Y2170D02*
D03*
X2120D02*
D03*
X2090Y2200D02*
D03*
X2120D02*
D03*
X2180D02*
D03*
X2150D02*
D03*
X2180Y2170D02*
D03*
X2150D02*
D03*
X2180Y2140D02*
D03*
X2150D02*
D03*
X1940D02*
D03*
X1970D02*
D03*
X1940Y2170D02*
D03*
X1970D02*
D03*
X1940Y2200D02*
D03*
X1970D02*
D03*
X1910D02*
D03*
Y2170D02*
D03*
Y2140D02*
D03*
X1880D02*
D03*
Y2170D02*
D03*
Y2200D02*
D03*
X1910Y1730D02*
D03*
Y1700D02*
D03*
X1940D02*
D03*
Y1730D02*
D03*
X1970D02*
D03*
X2000D02*
D03*
X1970Y1700D02*
D03*
X2000D02*
D03*
X2030D02*
D03*
Y1730D02*
D03*
X1870Y1620D02*
D03*
Y1590D02*
D03*
Y1560D02*
D03*
X1900D02*
D03*
Y1590D02*
D03*
Y1620D02*
D03*
X1870Y1650D02*
D03*
X1900D02*
D03*
X1960D02*
D03*
X1930D02*
D03*
X1960Y1620D02*
D03*
X1930D02*
D03*
X1960Y1590D02*
D03*
X1930D02*
D03*
X1960Y1560D02*
D03*
X1930D02*
D03*
X2140Y1500D02*
D03*
X2170D02*
D03*
X2140Y1530D02*
D03*
X2170D02*
D03*
X2140Y1560D02*
D03*
X2170D02*
D03*
X2140Y1590D02*
D03*
X2170D02*
D03*
X2140Y1620D02*
D03*
X2170D02*
D03*
X2200D02*
D03*
X2110D02*
D03*
X2080D02*
D03*
X2110Y1590D02*
D03*
X2080D02*
D03*
X2110Y1560D02*
D03*
Y1530D02*
D03*
Y1500D02*
D03*
Y1460D02*
D03*
Y1430D02*
D03*
X2080D02*
D03*
X2050D02*
D03*
X2080Y1460D02*
D03*
X2050D02*
D03*
Y1500D02*
D03*
X2080D02*
D03*
X2050Y1530D02*
D03*
X2080D02*
D03*
Y1560D02*
D03*
X2050D02*
D03*
Y1590D02*
D03*
X2020D02*
D03*
Y1560D02*
D03*
Y1530D02*
D03*
Y1500D02*
D03*
Y1460D02*
D03*
Y1430D02*
D03*
X1990D02*
D03*
Y1460D02*
D03*
Y1500D02*
D03*
Y1530D02*
D03*
Y1560D02*
D03*
Y1590D02*
D03*
X2050Y1680D02*
D03*
Y1650D02*
D03*
Y1620D02*
D03*
X1990D02*
D03*
Y1650D02*
D03*
Y1680D02*
D03*
X2020D02*
D03*
Y1620D02*
D03*
Y1650D02*
D03*
X1130Y3210D02*
D03*
X1208Y3065D02*
D03*
X1650Y2780D02*
D03*
X1910D02*
D03*
X1700D02*
D03*
X1860D02*
D03*
X1750D02*
D03*
X1810D02*
D03*
X1780Y2810D02*
D03*
Y2850D02*
D03*
X1840Y2500D02*
D03*
X1690D02*
D03*
X1740D02*
D03*
X1790D02*
D03*
X1890Y2490D02*
D03*
X1840Y2470D02*
D03*
X1790D02*
D03*
X1740D02*
D03*
X1690D02*
D03*
X1310Y3300D02*
D03*
X1360Y2970D02*
D03*
X1320D02*
D03*
X1284Y3070D02*
D03*
X1309D02*
D03*
M02*
