G04*
G04 #@! TF.GenerationSoftware,Altium Limited,Altium Designer,21.2.2 (38)*
G04*
G04 Layer_Color=16711935*
%FSLAX23Y23*%
%MOIN*%
G70*
G04*
G04 #@! TF.SameCoordinates,6939E313-D8E2-45C8-8463-115B02E7E026*
G04*
G04*
G04 #@! TF.FilePolarity,Positive*
G04*
G01*
G75*
%ADD11C,0.008*%
%ADD92C,0.004*%
%ADD93R,0.110X0.025*%
D11*
X1922Y3011D02*
X2277D01*
Y3409D01*
X1922D02*
X2277D01*
X1922Y3011D02*
Y3409D01*
X1755Y1121D02*
Y1239D01*
X1605Y1121D02*
X1755D01*
X1605D02*
Y1239D01*
X1755D01*
X2078Y1654D02*
X2252D01*
X2078D02*
Y1886D01*
X2252D01*
Y1654D02*
Y1886D01*
D92*
X1170Y3190D02*
G03*
X1170Y3190I-20J0D01*
G01*
X1350Y1450D02*
Y1470D01*
X1310D02*
X1350D01*
X1310Y1450D02*
Y1470D01*
Y1450D02*
X1350D01*
X1480Y1250D02*
Y1270D01*
X1520D01*
Y1250D02*
Y1270D01*
X1480Y1250D02*
X1520D01*
X1520Y1370D02*
X1540D01*
Y1330D02*
Y1370D01*
X1520Y1330D02*
X1540D01*
X1520D02*
Y1370D01*
X1384Y1417D02*
X1421Y1380D01*
Y1303D02*
Y1417D01*
X1359Y1303D02*
X1421D01*
X1359D02*
Y1417D01*
X1421D01*
X1390Y1104D02*
X1427Y1142D01*
X1313Y1104D02*
X1427D01*
X1313D02*
Y1156D01*
X1427D01*
Y1104D02*
Y1156D01*
X1460Y1090D02*
X1480D01*
X1460D02*
Y1130D01*
X1480D01*
Y1090D02*
Y1130D01*
X1450Y1570D02*
X1470D01*
Y1530D02*
Y1570D01*
X1450Y1530D02*
X1470D01*
X1450D02*
Y1570D01*
X1542Y1511D02*
Y1629D01*
X1598Y1511D02*
Y1629D01*
X1542Y1511D02*
X1598D01*
X1542Y1629D02*
X1598D01*
X1520Y1660D02*
Y1680D01*
X1560D01*
Y1660D02*
Y1680D01*
X1520Y1660D02*
X1560D01*
X1400Y1530D02*
X1420D01*
X1400D02*
Y1570D01*
X1420D01*
Y1530D02*
Y1570D01*
X1835Y1656D02*
X1884Y1705D01*
X1616Y1656D02*
X1835D01*
X1616D02*
Y1924D01*
X1835D01*
X1884Y1875D01*
Y1705D02*
Y1875D01*
X2109Y3057D02*
X2351D01*
X2433Y3139D01*
Y3463D01*
X2027D02*
X2433D01*
X2027Y3139D02*
Y3463D01*
Y3139D02*
X2109Y3057D01*
X2281Y1354D02*
X2344D01*
Y1386D01*
X2281D02*
X2344D01*
X2281Y1354D02*
Y1386D01*
X1715Y1161D02*
X1765D01*
Y1239D01*
X1715D02*
X1765D01*
X1715Y1161D02*
Y1239D01*
X1635Y1161D02*
X1685D01*
Y1239D01*
X1635D02*
X1685D01*
X1635Y1161D02*
Y1239D01*
X1505Y1139D02*
X1555D01*
Y1061D02*
Y1139D01*
X1505Y1061D02*
X1555D01*
X1505D02*
Y1139D01*
X2470Y3300D02*
X2510D01*
Y3320D01*
X2470D02*
X2510D01*
X2470Y3300D02*
Y3320D01*
X2469Y3117D02*
Y3223D01*
X2531D01*
Y3117D02*
Y3223D01*
X2469Y3117D02*
X2531D01*
X2469Y3140D02*
X2493Y3117D01*
X1872Y3569D02*
X2108D01*
Y3491D02*
Y3569D01*
X1872Y3491D02*
X2108D01*
X1872D02*
Y3569D01*
X2549Y3343D02*
Y3579D01*
X2471Y3343D02*
X2549D01*
X2471D02*
Y3579D01*
X2549D01*
X1932Y1021D02*
X2168D01*
X1932D02*
Y1099D01*
X2168D01*
Y1021D02*
Y1099D01*
X1109Y1192D02*
Y1428D01*
X1031Y1192D02*
X1109D01*
X1031D02*
Y1428D01*
X1109D01*
X1987Y1349D02*
X2113D01*
Y1286D02*
Y1349D01*
X1987Y1286D02*
X2113D01*
X1987D02*
Y1349D01*
X2278Y1575D02*
Y1625D01*
X2356D01*
Y1575D02*
Y1625D01*
X2278Y1575D02*
X2356D01*
X1819Y1667D02*
Y1716D01*
X1740Y1667D02*
X1819D01*
X1740D02*
Y1716D01*
X1819D01*
X1825Y1743D02*
Y1814D01*
X1691Y1743D02*
Y1814D01*
X1825D01*
X1691Y1743D02*
X1825D01*
X1811Y1367D02*
Y1399D01*
X1749Y1367D02*
X1811D01*
X1749D02*
Y1399D01*
X1811D01*
X2265Y1404D02*
Y1475D01*
X2399Y1404D02*
Y1475D01*
X2265Y1404D02*
X2399D01*
X2265Y1475D02*
X2399D01*
X1821Y1502D02*
Y1534D01*
X1759Y1502D02*
X1821D01*
X1759D02*
Y1534D01*
X1821D01*
Y1584D02*
Y1616D01*
X1759Y1584D02*
X1821D01*
X1759D02*
Y1616D01*
X1821D01*
X2271Y1495D02*
Y1545D01*
X2350D01*
Y1495D02*
Y1545D01*
X2271Y1495D02*
X2350D01*
X1819Y1420D02*
Y1470D01*
X1740Y1420D02*
X1819D01*
X1740D02*
Y1470D01*
X1819D01*
X1414Y2637D02*
Y2763D01*
X1166Y2637D02*
X1414D01*
X1166D02*
Y2763D01*
X1414D01*
X1480Y3110D02*
X1500D01*
Y3070D02*
Y3110D01*
X1480Y3070D02*
X1500D01*
X1480D02*
Y3110D01*
X1501Y3234D02*
Y3266D01*
X1439Y3234D02*
X1501D01*
X1439D02*
Y3266D01*
X1501D01*
X1540Y3163D02*
X1650D01*
X1540Y2977D02*
X1650D01*
X1540D02*
Y3163D01*
X1650Y2977D02*
Y3163D01*
X1478Y2965D02*
X1497D01*
X1478D02*
Y3005D01*
X1497D01*
Y2965D02*
Y3005D01*
X1420Y3010D02*
X1440D01*
Y2970D02*
Y3010D01*
X1420Y2970D02*
X1440D01*
X1420D02*
Y3010D01*
X1965Y2457D02*
X2075D01*
X1965Y2643D02*
X2075D01*
Y2457D02*
Y2643D01*
X1965Y2457D02*
Y2643D01*
X2110Y2600D02*
X2130D01*
X2110D02*
Y2640D01*
X2130D01*
Y2600D02*
Y2640D01*
X2181Y2625D02*
X2259D01*
X2181Y2575D02*
Y2625D01*
Y2575D02*
X2259D01*
Y2625D01*
X2148Y2439D02*
X2352D01*
Y2541D01*
X2148D02*
X2352D01*
X2148Y2439D02*
Y2541D01*
Y2470D02*
X2178Y2439D01*
X1599Y2767D02*
X1844D01*
X1599Y2503D02*
X1844D01*
Y2767D01*
X1599Y2503D02*
Y2767D01*
X1115Y3225D02*
X1375D01*
X1115Y3048D02*
X1375D01*
X1115D02*
Y3225D01*
X1375Y3048D02*
Y3225D01*
X1115Y2830D02*
Y2910D01*
X1165D01*
Y2830D02*
Y2910D01*
X1115Y2830D02*
X1165D01*
X1083Y2741D02*
X1123D01*
Y2721D02*
Y2741D01*
X1083Y2721D02*
X1123D01*
X1083D02*
Y2741D01*
X1051Y2092D02*
Y2388D01*
X1149D01*
Y2092D02*
Y2388D01*
X1051Y2092D02*
X1149D01*
X1051Y2144D02*
X1102Y2092D01*
X1150Y2631D02*
Y2670D01*
X1130Y2631D02*
X1150D01*
X1130D02*
Y2670D01*
X1150D01*
X1150Y1930D02*
X1190D01*
X1150D02*
Y1950D01*
X1190D01*
Y1930D02*
Y1950D01*
X2216Y1355D02*
Y1525D01*
Y1355D02*
X2265Y1306D01*
X2484D01*
Y1574D01*
X2265D02*
X2484D01*
X2216Y1525D02*
X2265Y1574D01*
X1884Y1355D02*
Y1525D01*
X1835Y1574D02*
X1884Y1525D01*
X1616Y1574D02*
X1835D01*
X1616Y1306D02*
Y1574D01*
Y1306D02*
X1835D01*
X1884Y1355D01*
X1240Y2960D02*
X1280D01*
X1240D02*
Y2980D01*
X1280D01*
Y2960D02*
Y2980D01*
X1330Y3030D02*
X1370D01*
Y3010D02*
Y3030D01*
X1330Y3010D02*
X1370D01*
X1330D02*
Y3030D01*
X1249Y3244D02*
X1311D01*
X1249D02*
Y3276D01*
X1311D01*
Y3244D02*
Y3276D01*
X1410Y3090D02*
X1450D01*
Y3070D02*
Y3090D01*
X1410Y3070D02*
X1450D01*
X1410D02*
Y3090D01*
X1280Y3120D02*
X1320D01*
Y3100D02*
Y3120D01*
X1280Y3100D02*
X1320D01*
X1280D02*
Y3120D01*
X1440Y3120D02*
Y3160D01*
X1460D01*
Y3120D02*
Y3160D01*
X1440Y3120D02*
X1460D01*
X1210Y1500D02*
X1250D01*
Y1480D02*
Y1500D01*
X1210Y1480D02*
X1250D01*
X1210D02*
Y1500D01*
X1260Y1390D02*
Y1430D01*
X1240Y1390D02*
X1260D01*
X1240D02*
Y1430D01*
X1260D01*
X1120Y1580D02*
X1160D01*
X1120D02*
Y1600D01*
X1160D01*
Y1580D02*
Y1600D01*
X1227Y1530D02*
X1259D01*
X1227D02*
Y1570D01*
X1259D01*
Y1530D02*
Y1570D01*
X1245Y1530D02*
X1259Y1544D01*
X1326Y1416D02*
X1434D01*
Y1344D02*
Y1416D01*
X1326Y1344D02*
X1434D01*
X1326D02*
Y1416D01*
Y1404D02*
X1338Y1416D01*
X1304Y1536D02*
Y1644D01*
X1376D01*
Y1536D02*
Y1644D01*
X1304Y1536D02*
X1376D01*
X1304Y1548D02*
X1316Y1536D01*
X1420Y1526D02*
Y1565D01*
X1400Y1526D02*
X1420D01*
X1400D02*
Y1565D01*
X1420D01*
X1450Y1530D02*
Y1570D01*
X1470D01*
Y1530D02*
Y1570D01*
X1450Y1530D02*
X1470D01*
D93*
X1595Y3150D02*
D03*
X2020Y2470D02*
D03*
M02*
