G04*
G04 #@! TF.GenerationSoftware,Altium Limited,Altium Designer,21.2.2 (38)*
G04*
G04 Layer_Color=2752767*
%FSLAX23Y23*%
%MOIN*%
G70*
G04*
G04 #@! TF.SameCoordinates,6939E313-D8E2-45C8-8463-115B02E7E026*
G04*
G04*
G04 #@! TF.FilePolarity,Positive*
G04*
G01*
G75*
%ADD94C,0.002*%
%ADD95C,0.003*%
D94*
X1903Y3522D02*
Y3538D01*
X1919D01*
Y3522D01*
X1903D01*
X1982D02*
Y3538D01*
X1998D01*
Y3522D01*
X1982D01*
X2061D02*
Y3538D01*
X2077D01*
Y3522D01*
X2061D01*
X2502Y3532D02*
Y3548D01*
X2518D01*
Y3532D01*
X2502D01*
Y3453D02*
Y3469D01*
X2518D01*
Y3453D01*
X2502D01*
Y3375D02*
Y3391D01*
X2518D01*
Y3375D01*
X2502D01*
X2121Y1052D02*
Y1068D01*
X2137D01*
Y1052D01*
X2121D01*
X2042D02*
Y1068D01*
X2058D01*
Y1052D01*
X2042D01*
X1963D02*
Y1068D01*
X1979D01*
Y1052D01*
X1963D01*
X1062Y1381D02*
Y1397D01*
X1078D01*
Y1381D01*
X1062D01*
Y1302D02*
Y1318D01*
X1078D01*
Y1302D01*
X1062D01*
Y1223D02*
Y1239D01*
X1078D01*
Y1223D01*
X1062D01*
X1246Y1343D02*
X1238Y1359D01*
X1254D01*
X1246Y1343D01*
X1267Y1584D02*
X1259Y1600D01*
X1275D01*
X1267Y1584D01*
X1157Y1514D02*
X1149Y1530D01*
X1165D01*
X1157Y1514D01*
X1190Y1422D02*
X1182Y1438D01*
X1198D01*
X1190Y1422D01*
X1510Y1172D02*
X1502Y1188D01*
X1518D01*
X1510Y1172D01*
X1461Y1598D02*
X1453Y1614D01*
X1469D01*
X1461Y1598D01*
X1411Y1588D02*
X1403Y1604D01*
X1419D01*
X1411Y1588D01*
X1448Y1440D02*
X1440Y1456D01*
X1456D01*
X1448Y1440D01*
X1502Y1208D02*
X1494Y1224D01*
X1510D01*
X1502Y1208D01*
X1490Y1352D02*
X1482Y1368D01*
X1498D01*
X1490Y1352D01*
X1291Y1075D02*
X1283Y1091D01*
X1299D01*
X1291Y1075D01*
X1670Y1592D02*
X1662Y1608D01*
X1678D01*
X1670Y1592D01*
Y1522D02*
X1662Y1538D01*
X1678D01*
X1670Y1522D01*
X1951Y1280D02*
X1943Y1296D01*
X1959D01*
X1951Y1280D01*
Y1337D02*
X1943Y1353D01*
X1959D01*
X1951Y1337D01*
X1230Y2744D02*
X1222Y2760D01*
X1238D01*
X1230Y2744D01*
X1260D02*
X1252Y2760D01*
X1268D01*
X1260Y2744D01*
X1230Y2773D02*
X1222Y2789D01*
X1238D01*
X1230Y2773D01*
X1260D02*
X1252Y2789D01*
X1268D01*
X1260Y2773D01*
Y2716D02*
X1252Y2732D01*
X1268D01*
X1260Y2716D01*
X1230D02*
X1222Y2732D01*
X1238D01*
X1230Y2716D01*
X1260Y2687D02*
X1252Y2703D01*
X1268D01*
X1260Y2687D01*
X1230D02*
X1222Y2703D01*
X1238D01*
X1230Y2687D01*
X1260Y2658D02*
X1252Y2674D01*
X1268D01*
X1260Y2658D01*
X1230D02*
X1222Y2674D01*
X1238D01*
X1230Y2658D01*
X1260Y2629D02*
X1252Y2645D01*
X1268D01*
X1260Y2629D01*
X1230D02*
X1222Y2645D01*
X1238D01*
X1230Y2629D01*
X1260Y2601D02*
X1252Y2617D01*
X1268D01*
X1260Y2601D01*
X1230D02*
X1222Y2617D01*
X1238D01*
X1230Y2601D01*
X1260Y2572D02*
X1252Y2588D01*
X1268D01*
X1260Y2572D01*
X1230D02*
X1222Y2588D01*
X1238D01*
X1230Y2572D01*
X1609Y1733D02*
X1601Y1749D01*
X1617D01*
X1609Y1733D01*
X1569D02*
X1561Y1749D01*
X1577D01*
X1569Y1733D01*
X1690Y1372D02*
X1682Y1388D01*
X1698D01*
X1690Y1372D01*
X1637D02*
X1629Y1388D01*
X1645D01*
X1637Y1372D01*
X1587D02*
X1579Y1388D01*
X1595D01*
X1587Y1372D01*
X1736Y1273D02*
X1728Y1289D01*
X1744D01*
X1736Y1273D01*
X1699D02*
X1691Y1289D01*
X1707D01*
X1699Y1273D01*
X1669D02*
X1661Y1289D01*
X1677D01*
X1669Y1273D01*
X1639D02*
X1631Y1289D01*
X1647D01*
X1639Y1273D01*
X1723Y1372D02*
X1715Y1388D01*
X1731D01*
X1723Y1372D01*
X1715Y1635D02*
X1707Y1651D01*
X1723D01*
X1715Y1635D01*
X1699Y1663D02*
X1691Y1679D01*
X1707D01*
X1699Y1663D01*
X1689Y1693D02*
X1681Y1709D01*
X1697D01*
X1689Y1693D01*
X1659D02*
X1651Y1709D01*
X1667D01*
X1659Y1693D01*
X1730Y1531D02*
X1722Y1547D01*
X1738D01*
X1730Y1531D01*
Y1561D02*
X1722Y1577D01*
X1738D01*
X1730Y1561D01*
Y1591D02*
X1722Y1607D01*
X1738D01*
X1730Y1591D01*
Y1499D02*
X1722Y1515D01*
X1738D01*
X1730Y1499D01*
X2003Y1132D02*
X1995Y1148D01*
X2011D01*
X2003Y1132D01*
X2033D02*
X2025Y1148D01*
X2041D01*
X2033Y1132D01*
X1973D02*
X1965Y1148D01*
X1981D01*
X1973Y1132D01*
X1943D02*
X1935Y1148D01*
X1951D01*
X1943Y1132D01*
X1913D02*
X1905Y1148D01*
X1921D01*
X1913Y1132D01*
X1883D02*
X1875Y1148D01*
X1891D01*
X1883Y1132D01*
X1853D02*
X1845Y1148D01*
X1861D01*
X1853Y1132D01*
X2213D02*
X2205Y1148D01*
X2221D01*
X2213Y1132D01*
X2243D02*
X2235Y1148D01*
X2251D01*
X2243Y1132D01*
X2183D02*
X2175Y1148D01*
X2191D01*
X2183Y1132D01*
X2153D02*
X2145Y1148D01*
X2161D01*
X2153Y1132D01*
X2123D02*
X2115Y1148D01*
X2131D01*
X2123Y1132D01*
X2093D02*
X2085Y1148D01*
X2101D01*
X2093Y1132D01*
X2063D02*
X2055Y1148D01*
X2071D01*
X2063Y1132D01*
X2093Y1224D02*
X2085Y1240D01*
X2101D01*
X2093Y1224D01*
X2063D02*
X2055Y1240D01*
X2071D01*
X2063Y1224D01*
X2123D02*
X2115Y1240D01*
X2131D01*
X2123Y1224D01*
X2063Y1194D02*
X2055Y1210D01*
X2071D01*
X2063Y1194D01*
Y1164D02*
X2055Y1180D01*
X2071D01*
X2063Y1164D01*
X2093D02*
X2085Y1180D01*
X2101D01*
X2093Y1164D01*
Y1194D02*
X2085Y1210D01*
X2101D01*
X2093Y1194D01*
X2123D02*
X2115Y1210D01*
X2131D01*
X2123Y1194D01*
Y1164D02*
X2115Y1180D01*
X2131D01*
X2123Y1164D01*
X2153D02*
X2145Y1180D01*
X2161D01*
X2153Y1164D01*
X2183D02*
X2175Y1180D01*
X2191D01*
X2183Y1164D01*
X2153Y1194D02*
X2145Y1210D01*
X2161D01*
X2153Y1194D01*
X2183D02*
X2175Y1210D01*
X2191D01*
X2183Y1194D01*
X2153Y1224D02*
X2145Y1240D01*
X2161D01*
X2153Y1224D01*
X2183D02*
X2175Y1240D01*
X2191D01*
X2183Y1224D01*
X2243D02*
X2235Y1240D01*
X2251D01*
X2243Y1224D01*
X2213D02*
X2205Y1240D01*
X2221D01*
X2213Y1224D01*
X2243Y1194D02*
X2235Y1210D01*
X2251D01*
X2243Y1194D01*
X2213D02*
X2205Y1210D01*
X2221D01*
X2213Y1194D01*
X2243Y1164D02*
X2235Y1180D01*
X2251D01*
X2243Y1164D01*
X2213D02*
X2205Y1180D01*
X2221D01*
X2213Y1164D01*
X1883Y1224D02*
X1875Y1240D01*
X1891D01*
X1883Y1224D01*
X1853D02*
X1845Y1240D01*
X1861D01*
X1853Y1224D01*
X1913D02*
X1905Y1240D01*
X1921D01*
X1913Y1224D01*
X1853Y1194D02*
X1845Y1210D01*
X1861D01*
X1853Y1194D01*
Y1164D02*
X1845Y1180D01*
X1861D01*
X1853Y1164D01*
X1883D02*
X1875Y1180D01*
X1891D01*
X1883Y1164D01*
Y1194D02*
X1875Y1210D01*
X1891D01*
X1883Y1194D01*
X1913D02*
X1905Y1210D01*
X1921D01*
X1913Y1194D01*
Y1164D02*
X1905Y1180D01*
X1921D01*
X1913Y1164D01*
X1943D02*
X1935Y1180D01*
X1951D01*
X1943Y1164D01*
X1973D02*
X1965Y1180D01*
X1981D01*
X1973Y1164D01*
X1943Y1194D02*
X1935Y1210D01*
X1951D01*
X1943Y1194D01*
X1973D02*
X1965Y1210D01*
X1981D01*
X1973Y1194D01*
X1943Y1224D02*
X1935Y1240D01*
X1951D01*
X1943Y1224D01*
X1973D02*
X1965Y1240D01*
X1981D01*
X1973Y1224D01*
X2033D02*
X2025Y1240D01*
X2041D01*
X2033Y1224D01*
X2003D02*
X1995Y1240D01*
X2011D01*
X2003Y1224D01*
X2033Y1194D02*
X2025Y1210D01*
X2041D01*
X2033Y1194D01*
X2003D02*
X1995Y1210D01*
X2011D01*
X2003Y1194D01*
X2033Y1164D02*
X2025Y1180D01*
X2041D01*
X2033Y1164D01*
X2003D02*
X1995Y1180D01*
X2011D01*
X2003Y1164D01*
X2560Y1482D02*
X2552Y1498D01*
X2568D01*
X2560Y1482D01*
Y1392D02*
X2552Y1408D01*
X2568D01*
X2560Y1392D01*
Y1422D02*
X2552Y1438D01*
X2568D01*
X2560Y1422D01*
Y1452D02*
X2552Y1468D01*
X2568D01*
X2560Y1452D01*
X2510Y1382D02*
X2502Y1398D01*
X2518D01*
X2510Y1382D01*
Y1292D02*
X2502Y1308D01*
X2518D01*
X2510Y1292D01*
Y1322D02*
X2502Y1338D01*
X2518D01*
X2510Y1322D01*
Y1352D02*
X2502Y1368D01*
X2518D01*
X2510Y1352D01*
Y1592D02*
X2502Y1608D01*
X2518D01*
X2510Y1592D01*
Y1502D02*
X2502Y1518D01*
X2518D01*
X2510Y1502D01*
Y1532D02*
X2502Y1548D01*
X2518D01*
X2510Y1532D01*
Y1562D02*
X2502Y1578D01*
X2518D01*
X2510Y1562D01*
X1590Y1057D02*
X1582Y1073D01*
X1598D01*
X1590Y1057D01*
X1680Y1082D02*
X1672Y1098D01*
X1688D01*
X1680Y1082D01*
X1400Y3242D02*
X1392Y3258D01*
X1408D01*
X1400Y3242D01*
X1331Y3179D02*
X1323Y3195D01*
X1339D01*
X1331Y3179D01*
X1301D02*
X1293Y3195D01*
X1309D01*
X1301Y3179D01*
X1271D02*
X1263Y3195D01*
X1279D01*
X1271Y3179D01*
X1241D02*
X1233Y3195D01*
X1249D01*
X1241Y3179D01*
X1121Y3300D02*
X1113Y3316D01*
X1129D01*
X1121Y3300D01*
X1170Y3292D02*
X1162Y3308D01*
X1178D01*
X1170Y3292D01*
X1150Y3312D02*
X1142Y3328D01*
X1158D01*
X1150Y3312D01*
X2370Y3222D02*
X2362Y3238D01*
X2378D01*
X2370Y3222D01*
X2400D02*
X2392Y3238D01*
X2408D01*
X2400Y3222D01*
X2370Y3252D02*
X2362Y3268D01*
X2378D01*
X2370Y3252D01*
X2400D02*
X2392Y3268D01*
X2408D01*
X2400Y3252D01*
X2362Y2975D02*
X2354Y2991D01*
X2370D01*
X2362Y2975D01*
Y2945D02*
X2354Y2961D01*
X2370D01*
X2362Y2945D01*
X2392D02*
X2384Y2961D01*
X2400D01*
X2392Y2945D01*
X2422D02*
X2414Y2961D01*
X2430D01*
X2422Y2945D01*
X2392Y2975D02*
X2384Y2991D01*
X2400D01*
X2392Y2975D01*
X2422D02*
X2414Y2991D01*
X2430D01*
X2422Y2975D01*
X2482D02*
X2474Y2991D01*
X2490D01*
X2482Y2975D01*
X2452D02*
X2444Y2991D01*
X2460D01*
X2452Y2975D01*
X2482Y2945D02*
X2474Y2961D01*
X2490D01*
X2482Y2945D01*
X2452D02*
X2444Y2961D01*
X2460D01*
X2452Y2945D01*
X2305Y2946D02*
X2297Y2962D01*
X2313D01*
X2305Y2946D01*
X2335D02*
X2327Y2962D01*
X2343D01*
X2335Y2946D01*
X2305Y2976D02*
X2297Y2992D01*
X2313D01*
X2305Y2976D01*
X2335D02*
X2327Y2992D01*
X2343D01*
X2335Y2976D01*
X2275D02*
X2267Y2992D01*
X2283D01*
X2275Y2976D01*
X2245D02*
X2237Y2992D01*
X2253D01*
X2245Y2976D01*
X2275Y2946D02*
X2267Y2962D01*
X2283D01*
X2275Y2946D01*
X2245D02*
X2237Y2962D01*
X2253D01*
X2245Y2946D01*
X2215D02*
X2207Y2962D01*
X2223D01*
X2215Y2946D01*
Y2976D02*
X2207Y2992D01*
X2223D01*
X2215Y2976D01*
X2143Y2773D02*
X2135Y2789D01*
X2151D01*
X2143Y2773D01*
Y2743D02*
X2135Y2759D01*
X2151D01*
X2143Y2743D01*
Y2713D02*
X2135Y2729D01*
X2151D01*
X2143Y2713D01*
X2173D02*
X2165Y2729D01*
X2181D01*
X2173Y2713D01*
X2203D02*
X2195Y2729D01*
X2211D01*
X2203Y2713D01*
X2173Y2743D02*
X2165Y2759D01*
X2181D01*
X2173Y2743D01*
X2203D02*
X2195Y2759D01*
X2211D01*
X2203Y2743D01*
X2173Y2773D02*
X2165Y2789D01*
X2181D01*
X2173Y2773D01*
X2203D02*
X2195Y2789D01*
X2211D01*
X2203Y2773D01*
X2263D02*
X2255Y2789D01*
X2271D01*
X2263Y2773D01*
X2233D02*
X2225Y2789D01*
X2241D01*
X2233Y2773D01*
X2263Y2743D02*
X2255Y2759D01*
X2271D01*
X2263Y2743D01*
X2233D02*
X2225Y2759D01*
X2241D01*
X2233Y2743D01*
X2263Y2713D02*
X2255Y2729D01*
X2271D01*
X2263Y2713D01*
X2233D02*
X2225Y2729D01*
X2241D01*
X2233Y2713D01*
X2380Y2712D02*
X2372Y2728D01*
X2388D01*
X2380Y2712D01*
X2410D02*
X2402Y2728D01*
X2418D01*
X2410Y2712D01*
X2380Y2742D02*
X2372Y2758D01*
X2388D01*
X2380Y2742D01*
X2410D02*
X2402Y2758D01*
X2418D01*
X2410Y2742D01*
X2380Y2772D02*
X2372Y2788D01*
X2388D01*
X2380Y2772D01*
X2410D02*
X2402Y2788D01*
X2418D01*
X2410Y2772D01*
X2350D02*
X2342Y2788D01*
X2358D01*
X2350Y2772D01*
X2320D02*
X2312Y2788D01*
X2328D01*
X2320Y2772D01*
X2350Y2742D02*
X2342Y2758D01*
X2358D01*
X2350Y2742D01*
X2320D02*
X2312Y2758D01*
X2328D01*
X2320Y2742D01*
X2350Y2712D02*
X2342Y2728D01*
X2358D01*
X2350Y2712D01*
X2320D02*
X2312Y2728D01*
X2328D01*
X2320Y2712D01*
X2290D02*
X2282Y2728D01*
X2298D01*
X2290Y2712D01*
Y2742D02*
X2282Y2758D01*
X2298D01*
X2290Y2742D01*
Y2772D02*
X2282Y2788D01*
X2298D01*
X2290Y2772D01*
X2379Y1751D02*
X2371Y1767D01*
X2387D01*
X2379Y1751D01*
Y1721D02*
X2371Y1737D01*
X2387D01*
X2379Y1721D01*
Y1691D02*
X2371Y1707D01*
X2387D01*
X2379Y1691D01*
X2409D02*
X2401Y1707D01*
X2417D01*
X2409Y1691D01*
X2439D02*
X2431Y1707D01*
X2447D01*
X2439Y1691D01*
X2409Y1721D02*
X2401Y1737D01*
X2417D01*
X2409Y1721D01*
X2439D02*
X2431Y1737D01*
X2447D01*
X2439Y1721D01*
X2409Y1751D02*
X2401Y1767D01*
X2417D01*
X2409Y1751D01*
X2439D02*
X2431Y1767D01*
X2447D01*
X2439Y1751D01*
X2499D02*
X2491Y1767D01*
X2507D01*
X2499Y1751D01*
X2469D02*
X2461Y1767D01*
X2477D01*
X2469Y1751D01*
X2499Y1721D02*
X2491Y1737D01*
X2507D01*
X2499Y1721D01*
X2469D02*
X2461Y1737D01*
X2477D01*
X2469Y1721D01*
X2499Y1691D02*
X2491Y1707D01*
X2507D01*
X2499Y1691D01*
X2469D02*
X2461Y1707D01*
X2477D01*
X2469Y1691D01*
X2409Y1841D02*
X2401Y1857D01*
X2417D01*
X2409Y1841D01*
Y1811D02*
X2401Y1827D01*
X2417D01*
X2409Y1811D01*
Y1781D02*
X2401Y1797D01*
X2417D01*
X2409Y1781D01*
X2439D02*
X2431Y1797D01*
X2447D01*
X2439Y1781D01*
X2469D02*
X2461Y1797D01*
X2477D01*
X2469Y1781D01*
X2439Y1811D02*
X2431Y1827D01*
X2447D01*
X2439Y1811D01*
X2469D02*
X2461Y1827D01*
X2477D01*
X2469Y1811D01*
X2439Y1841D02*
X2431Y1857D01*
X2447D01*
X2439Y1841D01*
X2469D02*
X2461Y1857D01*
X2477D01*
X2469Y1841D01*
X2529D02*
X2521Y1857D01*
X2537D01*
X2529Y1841D01*
X2499D02*
X2491Y1857D01*
X2507D01*
X2499Y1841D01*
X2529Y1811D02*
X2521Y1827D01*
X2537D01*
X2529Y1811D01*
X2499D02*
X2491Y1827D01*
X2507D01*
X2499Y1811D01*
X2529Y1781D02*
X2521Y1797D01*
X2537D01*
X2529Y1781D01*
X2499D02*
X2491Y1797D01*
X2507D01*
X2499Y1781D01*
X1974Y1894D02*
X1966Y1910D01*
X1982D01*
X1974Y1894D01*
X2004D02*
X1996Y1910D01*
X2012D01*
X2004Y1894D01*
X1974Y1924D02*
X1966Y1940D01*
X1982D01*
X1974Y1924D01*
X2004D02*
X1996Y1940D01*
X2012D01*
X2004Y1924D01*
X1974Y1954D02*
X1966Y1970D01*
X1982D01*
X1974Y1954D01*
X2004D02*
X1996Y1970D01*
X2012D01*
X2004Y1954D01*
X1944D02*
X1936Y1970D01*
X1952D01*
X1944Y1954D01*
X1914D02*
X1906Y1970D01*
X1922D01*
X1914Y1954D01*
X1944Y1924D02*
X1936Y1940D01*
X1952D01*
X1944Y1924D01*
X1914D02*
X1906Y1940D01*
X1922D01*
X1914Y1924D01*
X1944Y1894D02*
X1936Y1910D01*
X1952D01*
X1944Y1894D01*
X1914D02*
X1906Y1910D01*
X1922D01*
X1914Y1894D01*
X1884D02*
X1876Y1910D01*
X1892D01*
X1884Y1894D01*
Y1924D02*
X1876Y1940D01*
X1892D01*
X1884Y1924D01*
Y1954D02*
X1876Y1970D01*
X1892D01*
X1884Y1954D01*
X2474Y1884D02*
X2466Y1900D01*
X2482D01*
X2474Y1884D01*
X2504D02*
X2496Y1900D01*
X2512D01*
X2504Y1884D01*
X2474Y1914D02*
X2466Y1930D01*
X2482D01*
X2474Y1914D01*
X2504D02*
X2496Y1930D01*
X2512D01*
X2504Y1914D01*
X2474Y1944D02*
X2466Y1960D01*
X2482D01*
X2474Y1944D01*
X2504D02*
X2496Y1960D01*
X2512D01*
X2504Y1944D01*
X2444D02*
X2436Y1960D01*
X2452D01*
X2444Y1944D01*
X2414D02*
X2406Y1960D01*
X2422D01*
X2414Y1944D01*
X2444Y1914D02*
X2436Y1930D01*
X2452D01*
X2444Y1914D01*
X2414D02*
X2406Y1930D01*
X2422D01*
X2414Y1914D01*
X2444Y1884D02*
X2436Y1900D01*
X2452D01*
X2444Y1884D01*
X2414D02*
X2406Y1900D01*
X2422D01*
X2414Y1884D01*
X2384D02*
X2376Y1900D01*
X2392D01*
X2384Y1884D01*
Y1914D02*
X2376Y1930D01*
X2392D01*
X2384Y1914D01*
Y1944D02*
X2376Y1960D01*
X2392D01*
X2384Y1944D01*
X1850Y2132D02*
X1842Y2148D01*
X1858D01*
X1850Y2132D01*
Y2162D02*
X1842Y2178D01*
X1858D01*
X1850Y2162D01*
Y2192D02*
X1842Y2208D01*
X1858D01*
X1850Y2192D01*
X2387Y2191D02*
X2379Y2207D01*
X2395D01*
X2387Y2191D01*
Y2161D02*
X2379Y2177D01*
X2395D01*
X2387Y2161D01*
Y2131D02*
X2379Y2147D01*
X2395D01*
X2387Y2131D01*
X2417D02*
X2409Y2147D01*
X2425D01*
X2417Y2131D01*
X2447D02*
X2439Y2147D01*
X2455D01*
X2447Y2131D01*
X2417Y2161D02*
X2409Y2177D01*
X2425D01*
X2417Y2161D01*
X2447D02*
X2439Y2177D01*
X2455D01*
X2447Y2161D01*
X2417Y2191D02*
X2409Y2207D01*
X2425D01*
X2417Y2191D01*
X2447D02*
X2439Y2207D01*
X2455D01*
X2447Y2191D01*
X2507D02*
X2499Y2207D01*
X2515D01*
X2507Y2191D01*
X2477D02*
X2469Y2207D01*
X2485D01*
X2477Y2191D01*
X2507Y2161D02*
X2499Y2177D01*
X2515D01*
X2507Y2161D01*
X2477D02*
X2469Y2177D01*
X2485D01*
X2477Y2161D01*
X2507Y2131D02*
X2499Y2147D01*
X2515D01*
X2507Y2131D01*
X2477D02*
X2469Y2147D01*
X2485D01*
X2477Y2131D01*
X2330Y2132D02*
X2322Y2148D01*
X2338D01*
X2330Y2132D01*
X2360D02*
X2352Y2148D01*
X2368D01*
X2360Y2132D01*
X2330Y2162D02*
X2322Y2178D01*
X2338D01*
X2330Y2162D01*
X2360D02*
X2352Y2178D01*
X2368D01*
X2360Y2162D01*
X2330Y2192D02*
X2322Y2208D01*
X2338D01*
X2330Y2192D01*
X2360D02*
X2352Y2208D01*
X2368D01*
X2360Y2192D01*
X2300D02*
X2292Y2208D01*
X2308D01*
X2300Y2192D01*
X2270D02*
X2262Y2208D01*
X2278D01*
X2270Y2192D01*
X2300Y2162D02*
X2292Y2178D01*
X2308D01*
X2300Y2162D01*
X2270D02*
X2262Y2178D01*
X2278D01*
X2270Y2162D01*
X2300Y2132D02*
X2292Y2148D01*
X2308D01*
X2300Y2132D01*
X2270D02*
X2262Y2148D01*
X2278D01*
X2270Y2132D01*
X2240D02*
X2232Y2148D01*
X2248D01*
X2240Y2132D01*
Y2162D02*
X2232Y2178D01*
X2248D01*
X2240Y2162D01*
X2210D02*
X2202Y2178D01*
X2218D01*
X2210Y2162D01*
Y2132D02*
X2202Y2148D01*
X2218D01*
X2210Y2132D01*
X2240Y2192D02*
X2232Y2208D01*
X2248D01*
X2240Y2192D01*
X2210D02*
X2202Y2208D01*
X2218D01*
X2210Y2192D01*
X2030D02*
X2022Y2208D01*
X2038D01*
X2030Y2192D01*
X2000D02*
X1992Y2208D01*
X2008D01*
X2000Y2192D01*
X2060D02*
X2052Y2208D01*
X2068D01*
X2060Y2192D01*
X2000Y2162D02*
X1992Y2178D01*
X2008D01*
X2000Y2162D01*
Y2132D02*
X1992Y2148D01*
X2008D01*
X2000Y2132D01*
X2030D02*
X2022Y2148D01*
X2038D01*
X2030Y2132D01*
Y2162D02*
X2022Y2178D01*
X2038D01*
X2030Y2162D01*
X2060D02*
X2052Y2178D01*
X2068D01*
X2060Y2162D01*
Y2132D02*
X2052Y2148D01*
X2068D01*
X2060Y2132D01*
X2090D02*
X2082Y2148D01*
X2098D01*
X2090Y2132D01*
X2120D02*
X2112Y2148D01*
X2128D01*
X2120Y2132D01*
X2090Y2162D02*
X2082Y2178D01*
X2098D01*
X2090Y2162D01*
X2120D02*
X2112Y2178D01*
X2128D01*
X2120Y2162D01*
X2090Y2192D02*
X2082Y2208D01*
X2098D01*
X2090Y2192D01*
X2120D02*
X2112Y2208D01*
X2128D01*
X2120Y2192D01*
X2180D02*
X2172Y2208D01*
X2188D01*
X2180Y2192D01*
X2150D02*
X2142Y2208D01*
X2158D01*
X2150Y2192D01*
X2180Y2162D02*
X2172Y2178D01*
X2188D01*
X2180Y2162D01*
X2150D02*
X2142Y2178D01*
X2158D01*
X2150Y2162D01*
X2180Y2132D02*
X2172Y2148D01*
X2188D01*
X2180Y2132D01*
X2150D02*
X2142Y2148D01*
X2158D01*
X2150Y2132D01*
X1940D02*
X1932Y2148D01*
X1948D01*
X1940Y2132D01*
X1970D02*
X1962Y2148D01*
X1978D01*
X1970Y2132D01*
X1940Y2162D02*
X1932Y2178D01*
X1948D01*
X1940Y2162D01*
X1970D02*
X1962Y2178D01*
X1978D01*
X1970Y2162D01*
X1940Y2192D02*
X1932Y2208D01*
X1948D01*
X1940Y2192D01*
X1970D02*
X1962Y2208D01*
X1978D01*
X1970Y2192D01*
X1910D02*
X1902Y2208D01*
X1918D01*
X1910Y2192D01*
Y2162D02*
X1902Y2178D01*
X1918D01*
X1910Y2162D01*
Y2132D02*
X1902Y2148D01*
X1918D01*
X1910Y2132D01*
X1880D02*
X1872Y2148D01*
X1888D01*
X1880Y2132D01*
Y2162D02*
X1872Y2178D01*
X1888D01*
X1880Y2162D01*
Y2192D02*
X1872Y2208D01*
X1888D01*
X1880Y2192D01*
X1910Y1722D02*
X1902Y1738D01*
X1918D01*
X1910Y1722D01*
Y1692D02*
X1902Y1708D01*
X1918D01*
X1910Y1692D01*
X1940D02*
X1932Y1708D01*
X1948D01*
X1940Y1692D01*
Y1722D02*
X1932Y1738D01*
X1948D01*
X1940Y1722D01*
X1970D02*
X1962Y1738D01*
X1978D01*
X1970Y1722D01*
X2000D02*
X1992Y1738D01*
X2008D01*
X2000Y1722D01*
X1970Y1692D02*
X1962Y1708D01*
X1978D01*
X1970Y1692D01*
X2000D02*
X1992Y1708D01*
X2008D01*
X2000Y1692D01*
X2030D02*
X2022Y1708D01*
X2038D01*
X2030Y1692D01*
Y1722D02*
X2022Y1738D01*
X2038D01*
X2030Y1722D01*
X1870Y1612D02*
X1862Y1628D01*
X1878D01*
X1870Y1612D01*
Y1582D02*
X1862Y1598D01*
X1878D01*
X1870Y1582D01*
Y1552D02*
X1862Y1568D01*
X1878D01*
X1870Y1552D01*
X1900D02*
X1892Y1568D01*
X1908D01*
X1900Y1552D01*
Y1582D02*
X1892Y1598D01*
X1908D01*
X1900Y1582D01*
Y1612D02*
X1892Y1628D01*
X1908D01*
X1900Y1612D01*
X1870Y1642D02*
X1862Y1658D01*
X1878D01*
X1870Y1642D01*
X1900D02*
X1892Y1658D01*
X1908D01*
X1900Y1642D01*
X1960D02*
X1952Y1658D01*
X1968D01*
X1960Y1642D01*
X1930D02*
X1922Y1658D01*
X1938D01*
X1930Y1642D01*
X1960Y1612D02*
X1952Y1628D01*
X1968D01*
X1960Y1612D01*
X1930D02*
X1922Y1628D01*
X1938D01*
X1930Y1612D01*
X1960Y1582D02*
X1952Y1598D01*
X1968D01*
X1960Y1582D01*
X1930D02*
X1922Y1598D01*
X1938D01*
X1930Y1582D01*
X1960Y1552D02*
X1952Y1568D01*
X1968D01*
X1960Y1552D01*
X1930D02*
X1922Y1568D01*
X1938D01*
X1930Y1552D01*
X2140Y1492D02*
X2132Y1508D01*
X2148D01*
X2140Y1492D01*
X2170D02*
X2162Y1508D01*
X2178D01*
X2170Y1492D01*
X2140Y1522D02*
X2132Y1538D01*
X2148D01*
X2140Y1522D01*
X2170D02*
X2162Y1538D01*
X2178D01*
X2170Y1522D01*
X2140Y1552D02*
X2132Y1568D01*
X2148D01*
X2140Y1552D01*
X2170D02*
X2162Y1568D01*
X2178D01*
X2170Y1552D01*
X2140Y1582D02*
X2132Y1598D01*
X2148D01*
X2140Y1582D01*
X2170D02*
X2162Y1598D01*
X2178D01*
X2170Y1582D01*
X2140Y1612D02*
X2132Y1628D01*
X2148D01*
X2140Y1612D01*
X2170D02*
X2162Y1628D01*
X2178D01*
X2170Y1612D01*
X2200D02*
X2192Y1628D01*
X2208D01*
X2200Y1612D01*
X2110D02*
X2102Y1628D01*
X2118D01*
X2110Y1612D01*
X2080D02*
X2072Y1628D01*
X2088D01*
X2080Y1612D01*
X2110Y1582D02*
X2102Y1598D01*
X2118D01*
X2110Y1582D01*
X2080D02*
X2072Y1598D01*
X2088D01*
X2080Y1582D01*
X2110Y1552D02*
X2102Y1568D01*
X2118D01*
X2110Y1552D01*
Y1522D02*
X2102Y1538D01*
X2118D01*
X2110Y1522D01*
Y1492D02*
X2102Y1508D01*
X2118D01*
X2110Y1492D01*
Y1452D02*
X2102Y1468D01*
X2118D01*
X2110Y1452D01*
Y1422D02*
X2102Y1438D01*
X2118D01*
X2110Y1422D01*
X2080D02*
X2072Y1438D01*
X2088D01*
X2080Y1422D01*
X2050D02*
X2042Y1438D01*
X2058D01*
X2050Y1422D01*
X2080Y1452D02*
X2072Y1468D01*
X2088D01*
X2080Y1452D01*
X2050D02*
X2042Y1468D01*
X2058D01*
X2050Y1452D01*
Y1492D02*
X2042Y1508D01*
X2058D01*
X2050Y1492D01*
X2080D02*
X2072Y1508D01*
X2088D01*
X2080Y1492D01*
X2050Y1522D02*
X2042Y1538D01*
X2058D01*
X2050Y1522D01*
X2080D02*
X2072Y1538D01*
X2088D01*
X2080Y1522D01*
Y1552D02*
X2072Y1568D01*
X2088D01*
X2080Y1552D01*
X2050D02*
X2042Y1568D01*
X2058D01*
X2050Y1552D01*
Y1582D02*
X2042Y1598D01*
X2058D01*
X2050Y1582D01*
X2020D02*
X2012Y1598D01*
X2028D01*
X2020Y1582D01*
Y1552D02*
X2012Y1568D01*
X2028D01*
X2020Y1552D01*
Y1522D02*
X2012Y1538D01*
X2028D01*
X2020Y1522D01*
Y1492D02*
X2012Y1508D01*
X2028D01*
X2020Y1492D01*
Y1452D02*
X2012Y1468D01*
X2028D01*
X2020Y1452D01*
Y1422D02*
X2012Y1438D01*
X2028D01*
X2020Y1422D01*
X1990D02*
X1982Y1438D01*
X1998D01*
X1990Y1422D01*
Y1452D02*
X1982Y1468D01*
X1998D01*
X1990Y1452D01*
Y1492D02*
X1982Y1508D01*
X1998D01*
X1990Y1492D01*
Y1522D02*
X1982Y1538D01*
X1998D01*
X1990Y1522D01*
Y1552D02*
X1982Y1568D01*
X1998D01*
X1990Y1552D01*
Y1582D02*
X1982Y1598D01*
X1998D01*
X1990Y1582D01*
X2050Y1672D02*
X2042Y1688D01*
X2058D01*
X2050Y1672D01*
Y1642D02*
X2042Y1658D01*
X2058D01*
X2050Y1642D01*
Y1612D02*
X2042Y1628D01*
X2058D01*
X2050Y1612D01*
X1990D02*
X1982Y1628D01*
X1998D01*
X1990Y1612D01*
Y1642D02*
X1982Y1658D01*
X1998D01*
X1990Y1642D01*
Y1672D02*
X1982Y1688D01*
X1998D01*
X1990Y1672D01*
X2020D02*
X2012Y1688D01*
X2028D01*
X2020Y1672D01*
Y1612D02*
X2012Y1628D01*
X2028D01*
X2020Y1612D01*
Y1642D02*
X2012Y1658D01*
X2028D01*
X2020Y1642D01*
X1130Y3202D02*
X1122Y3218D01*
X1138D01*
X1130Y3202D01*
X1208Y3057D02*
X1200Y3073D01*
X1216D01*
X1208Y3057D01*
X1650Y2772D02*
X1642Y2788D01*
X1658D01*
X1650Y2772D01*
X1910D02*
X1902Y2788D01*
X1918D01*
X1910Y2772D01*
X1700D02*
X1692Y2788D01*
X1708D01*
X1700Y2772D01*
X1860D02*
X1852Y2788D01*
X1868D01*
X1860Y2772D01*
X1750D02*
X1742Y2788D01*
X1758D01*
X1750Y2772D01*
X1810D02*
X1802Y2788D01*
X1818D01*
X1810Y2772D01*
X1780Y2802D02*
X1772Y2818D01*
X1788D01*
X1780Y2802D01*
Y2842D02*
X1772Y2858D01*
X1788D01*
X1780Y2842D01*
X1840Y2492D02*
X1832Y2508D01*
X1848D01*
X1840Y2492D01*
X1690D02*
X1682Y2508D01*
X1698D01*
X1690Y2492D01*
X1740D02*
X1732Y2508D01*
X1748D01*
X1740Y2492D01*
X1790D02*
X1782Y2508D01*
X1798D01*
X1790Y2492D01*
X1890Y2482D02*
X1882Y2498D01*
X1898D01*
X1890Y2482D01*
X1840Y2462D02*
X1832Y2478D01*
X1848D01*
X1840Y2462D01*
X1790D02*
X1782Y2478D01*
X1798D01*
X1790Y2462D01*
X1740D02*
X1732Y2478D01*
X1748D01*
X1740Y2462D01*
X1690D02*
X1682Y2478D01*
X1698D01*
X1690Y2462D01*
X1310Y3292D02*
X1302Y3308D01*
X1318D01*
X1310Y3292D01*
X1360Y2962D02*
X1352Y2978D01*
X1368D01*
X1360Y2962D01*
X1320D02*
X1312Y2978D01*
X1328D01*
X1320Y2962D01*
X1284Y3062D02*
X1276Y3078D01*
X1292D01*
X1284Y3062D01*
X1309D02*
X1301Y3078D01*
X1317D01*
X1309Y3062D01*
D95*
X1288Y2855D02*
G03*
X1288Y2855I-8J0D01*
G01*
X1488D02*
G03*
X1488Y2855I-8J0D01*
G01*
X1688D02*
G03*
X1688Y2855I-8J0D01*
G01*
X2088D02*
G03*
X2088Y2855I-8J0D01*
G01*
X2488D02*
G03*
X2488Y2855I-8J0D01*
G01*
X1888D02*
G03*
X1888Y2855I-8J0D01*
G01*
X2288D02*
G03*
X2288Y2855I-8J0D01*
G01*
X1288Y2055D02*
G03*
X1288Y2055I-8J0D01*
G01*
X1488D02*
G03*
X1488Y2055I-8J0D01*
G01*
X1688D02*
G03*
X1688Y2055I-8J0D01*
G01*
X2088D02*
G03*
X2088Y2055I-8J0D01*
G01*
X2488D02*
G03*
X2488Y2055I-8J0D01*
G01*
X1888D02*
G03*
X1888Y2055I-8J0D01*
G01*
X2288D02*
G03*
X2288Y2055I-8J0D01*
G01*
M02*
