G04*
G04 #@! TF.GenerationSoftware,Altium Limited,Altium Designer,21.2.2 (38)*
G04*
G04 Layer_Physical_Order=4*
G04 Layer_Color=16711680*
%FSLAX23Y23*%
%MOIN*%
G70*
G04*
G04 #@! TF.SameCoordinates,6939E313-D8E2-45C8-8463-115B02E7E026*
G04*
G04*
G04 #@! TF.FilePolarity,Positive*
G04*
G01*
G75*
%ADD12C,0.010*%
%ADD13R,0.019X0.020*%
%ADD16R,0.058X0.041*%
%ADD20R,0.020X0.019*%
%ADD21R,0.031X0.039*%
%ADD22R,0.024X0.026*%
%ADD44C,0.006*%
%ADD46C,0.007*%
%ADD47R,0.053X0.053*%
%ADD48C,0.053*%
%ADD49R,0.053X0.053*%
%ADD50C,0.098*%
%ADD51C,0.012*%
%ADD52R,0.049X0.024*%
%ADD53R,0.024X0.051*%
%ADD54R,0.039X0.024*%
%ADD55R,0.083X0.048*%
%ADD56R,0.297X0.409*%
%ADD57R,0.031X0.118*%
%ADD58R,0.028X0.016*%
%ADD59R,0.132X0.043*%
%ADD60R,0.041X0.058*%
%ADD61R,0.043X0.067*%
%ADD62R,0.045X0.134*%
%ADD63R,0.063X0.065*%
%ADD64R,0.163X0.183*%
%ADD65R,0.057X0.045*%
%ADD66R,0.093X0.061*%
%ADD67R,0.280X0.220*%
%ADD68R,0.089X0.037*%
%ADD69R,0.224X0.070*%
%ADD70R,0.018X0.055*%
G36*
X2560Y3560D02*
Y3350D01*
X2550Y3340D01*
X2523Y3340D01*
Y3383D01*
X2522Y3388D01*
X2519Y3392D01*
X2515Y3395D01*
X2510Y3396D01*
X2505Y3395D01*
X2501Y3392D01*
X2498Y3388D01*
X2497Y3383D01*
Y3344D01*
X2493Y3340D01*
X2480Y3340D01*
X2470D01*
X2469Y3340D01*
X2410Y3340D01*
X2390Y3360D01*
X2381D01*
X2380Y3360D01*
X2290D01*
X2289Y3360D01*
X2280D01*
X2270Y3350D01*
X2190D01*
X2180Y3360D01*
X2180Y3520D01*
X2240Y3580D01*
X2540D01*
X2560Y3560D01*
D02*
G37*
G36*
X2400Y3330D02*
X2469Y3330D01*
X2490Y3309D01*
X2490Y3280D01*
X2510Y3260D01*
X2520Y3260D01*
X2530Y3250D01*
X2530Y3220D01*
X2520Y3210D01*
X2290Y3210D01*
X2280Y3220D01*
Y3340D01*
X2290Y3350D01*
X2380D01*
X2400Y3330D01*
D02*
G37*
G36*
X1170Y3330D02*
X1181Y3319D01*
Y3200D01*
X1170Y3190D01*
X1110Y3190D01*
X1090Y3210D01*
Y3310D01*
X1110Y3330D01*
X1170Y3330D01*
D02*
G37*
G36*
X1230Y3199D02*
X1231Y3195D01*
X1127Y3091D01*
X1120Y3098D01*
Y3142D01*
X1148Y3170D01*
X1180D01*
X1210Y3200D01*
X1229D01*
X1230Y3199D01*
D02*
G37*
G36*
X1357Y3183D02*
Y3085D01*
X1314D01*
X1312Y3086D01*
X1306D01*
X1303Y3085D01*
X1290D01*
X1287Y3086D01*
X1281D01*
X1278Y3085D01*
X1271D01*
Y3167D01*
X1281Y3177D01*
X1284Y3182D01*
X1285Y3187D01*
X1284Y3192D01*
X1281Y3195D01*
X1283Y3199D01*
X1284Y3200D01*
X1340D01*
X1357Y3183D01*
D02*
G37*
G36*
X2160Y3546D02*
Y2996D01*
X2150Y2986D01*
X1899Y2986D01*
X1897Y2987D01*
X1894Y2989D01*
X1890Y2990D01*
X1852D01*
X1840Y3002D01*
X1840Y3546D01*
X1860Y3566D01*
X2140D01*
X2160Y3546D01*
D02*
G37*
G36*
X1660Y3020D02*
Y2960D01*
X1650Y2950D01*
X1630D01*
X1550Y2870D01*
X1550Y2820D01*
X1530Y2800D01*
X1430D01*
X1410Y2820D01*
X1410Y2980D01*
X1420Y2990D01*
X1450D01*
X1460Y2980D01*
X1465D01*
Y2980D01*
X1510D01*
Y2980D01*
X1520D01*
X1530Y2990D01*
Y3020D01*
X1550Y3040D01*
X1640D01*
X1660Y3020D01*
D02*
G37*
G36*
X2220Y2630D02*
Y2570D01*
X2210Y2560D01*
X2110D01*
X2090Y2580D01*
Y2600D01*
X2100Y2610D01*
X2100D01*
X2101Y2609D01*
X2130D01*
Y2610D01*
X2130D01*
X2134Y2611D01*
X2137Y2613D01*
X2147Y2623D01*
X2149Y2626D01*
X2150Y2630D01*
Y2630D01*
X2160Y2640D01*
X2210D01*
X2220Y2630D01*
D02*
G37*
G36*
X1188Y2983D02*
X1190D01*
Y2960D01*
X1210Y2940D01*
X1340D01*
X1400Y2880D01*
Y2820D01*
D01*
Y2820D01*
X1400Y2819D01*
Y2810D01*
X1420Y2790D01*
X1429D01*
X1430Y2790D01*
X1530D01*
X1531Y2790D01*
X1560D01*
X1580Y2770D01*
Y2600D01*
X1560Y2580D01*
X1340Y2580D01*
X1300Y2620D01*
X1300Y2770D01*
X1350Y2820D01*
Y2880D01*
X1310Y2920D01*
X1200D01*
X1172Y2948D01*
Y2983D01*
X1174D01*
Y3048D01*
X1188D01*
Y2983D01*
D02*
G37*
G36*
X1200Y2910D02*
X1300D01*
X1340Y2870D01*
Y2830D01*
X1290Y2780D01*
Y2771D01*
X1290Y2770D01*
X1290Y2620D01*
X1290Y2619D01*
Y2610D01*
X1320Y2580D01*
Y2570D01*
X1310Y2560D01*
X1080D01*
X1060Y2580D01*
Y2890D01*
X1080Y2910D01*
X1199D01*
X1200Y2910D01*
D02*
G37*
G36*
X1890Y2980D02*
X1970Y2900D01*
Y2720D01*
X2010Y2680D01*
X2120D01*
X2140Y2660D01*
Y2630D01*
X2130Y2620D01*
X2090D01*
X2080Y2610D01*
Y2560D01*
X2050Y2530D01*
X1960D01*
X1880Y2450D01*
X1680D01*
X1610Y2520D01*
Y2890D01*
X1700Y2980D01*
X1890Y2980D01*
D02*
G37*
G36*
X2230Y2520D02*
Y2450D01*
X2210Y2430D01*
X1980D01*
X1970Y2440D01*
Y2500D01*
X1980Y2510D01*
X2090D01*
X2110Y2530D01*
X2220D01*
X2230Y2520D01*
D02*
G37*
G36*
X2551Y3152D02*
X2551Y2721D01*
X2550Y2720D01*
Y2440D01*
X2510Y2400D01*
X2290D01*
X2260Y2430D01*
Y2520D01*
X2230Y2550D01*
Y2569D01*
X2230Y2570D01*
Y2630D01*
X2230Y2631D01*
Y2650D01*
X2220Y2660D01*
X2180D01*
X2138Y2702D01*
X2028D01*
X2011Y2719D01*
X2011Y2922D01*
X2061Y2972D01*
X2141Y2972D01*
X2144Y2975D01*
X2150D01*
X2154Y2976D01*
X2157Y2978D01*
X2167Y2988D01*
X2169Y2992D01*
X2170Y2996D01*
Y3001D01*
X2181Y3012D01*
Y3182D01*
X2191Y3192D01*
X2511D01*
X2551Y3152D01*
D02*
G37*
G36*
X2580Y2190D02*
Y1713D01*
X2519Y1651D01*
X2369D01*
X2339Y1681D01*
Y1821D01*
X2309Y1851D01*
X1849Y1851D01*
X1780Y1920D01*
Y2193D01*
X1817Y2230D01*
X2540D01*
X2580Y2190D01*
D02*
G37*
G36*
X2270Y1830D02*
X2310Y1790D01*
X2310Y1350D01*
X2283Y1323D01*
X1807D01*
X1790Y1340D01*
X1790Y1820D01*
X1800Y1830D01*
X2270Y1830D01*
D02*
G37*
G36*
X2550Y1640D02*
X2580Y1610D01*
X2580Y1290D01*
X2550Y1260D01*
X2370D01*
X2360Y1270D01*
Y1315D01*
X2320Y1355D01*
X2320Y1620D01*
X2329Y1629D01*
X2369Y1629D01*
X2380Y1640D01*
X2550Y1640D01*
D02*
G37*
G36*
X1780Y1840D02*
Y1822D01*
X1780D01*
Y1735D01*
X1780D01*
X1780Y1350D01*
X1770Y1340D01*
Y1212D01*
X1756Y1198D01*
X1724D01*
X1710Y1212D01*
Y1620D01*
X1630Y1700D01*
Y1850D01*
X1650Y1870D01*
X1750D01*
X1780Y1840D01*
D02*
G37*
G36*
X1634Y1125D02*
X1606D01*
X1594Y1112D01*
X1534D01*
X1532Y1117D01*
X1532Y1118D01*
X1536Y1119D01*
X1541Y1122D01*
X1544Y1127D01*
X1545Y1133D01*
Y1154D01*
X1559D01*
X1562Y1156D01*
X1634D01*
Y1125D01*
D02*
G37*
G36*
X2300Y1270D02*
Y1040D01*
X2270Y1010D01*
X1810D01*
X1790Y1030D01*
Y1140D01*
X1781Y1149D01*
X1764D01*
Y1151D01*
X1719D01*
X1710Y1160D01*
Y1180D01*
X1713Y1183D01*
X1716Y1186D01*
Y1186D01*
X1716Y1186D01*
X1764D01*
Y1188D01*
X1778D01*
X1790Y1200D01*
Y1290D01*
X1810Y1310D01*
X2260D01*
X2300Y1270D01*
D02*
G37*
D12*
X1470Y1180D02*
X1524D01*
X1267Y1507D02*
Y1592D01*
X1190Y1430D02*
X1267Y1507D01*
X1157Y1522D02*
X1190Y1489D01*
Y1430D02*
Y1489D01*
X1460Y1605D02*
X1461Y1605D01*
X1460Y1570D02*
Y1605D01*
X1461Y1605D02*
Y1606D01*
X1411Y1595D02*
Y1596D01*
X1410Y1567D02*
Y1595D01*
X1411Y1595D01*
X1439Y1439D02*
X1448Y1448D01*
Y1448D01*
X1439Y1397D02*
Y1439D01*
X1388Y1397D02*
X1400Y1386D01*
X1341Y1397D02*
X1388D01*
X1400Y1250D02*
Y1386D01*
Y1250D02*
X1470Y1180D01*
X1480Y1238D02*
X1502Y1216D01*
X1480Y1238D02*
Y1260D01*
X1524Y1180D02*
X1530Y1174D01*
Y1133D02*
Y1174D01*
X1522Y1133D02*
X1530D01*
Y1300D02*
Y1330D01*
X1520Y1290D02*
X1530Y1300D01*
X1520Y1260D02*
Y1290D01*
X1506Y1117D02*
Y1117D01*
X1500Y1111D02*
X1506Y1117D01*
X1489Y1111D02*
X1500D01*
X1475Y1125D02*
X1489Y1111D01*
X1475Y1125D02*
Y1126D01*
X1470Y1130D02*
X1475Y1126D01*
X1470Y1130D02*
X1470D01*
X1506Y1117D02*
X1522Y1133D01*
X1439Y1360D02*
X1490D01*
X1409Y1090D02*
X1410Y1091D01*
X1407Y1089D02*
X1409Y1090D01*
X1410Y1091D02*
Y1210D01*
X1341Y1279D02*
Y1323D01*
Y1279D02*
X1410Y1210D01*
X1520Y1530D02*
X1521Y1531D01*
X1520Y1490D02*
Y1530D01*
Y1490D02*
X1530Y1480D01*
Y1370D02*
Y1480D01*
X1442Y1320D02*
X1480D01*
X1439Y1323D02*
X1442Y1320D01*
X1480D02*
X1490Y1330D01*
X1530D01*
X1291Y1083D02*
X1327D01*
X1333Y1089D01*
X1409Y1090D02*
X1470D01*
X1410Y1567D02*
X1413Y1570D01*
X1460D01*
X1470Y1570D02*
X1523D01*
X1467Y1567D02*
X1470Y1570D01*
X1411Y1531D02*
X1461D01*
X1461Y1531D01*
X1410Y1533D02*
X1411Y1531D01*
X1461Y1531D02*
X1521D01*
X1523Y1533D01*
X1523Y1570D02*
X1523Y1570D01*
X1520Y1610D02*
X1523Y1607D01*
X1520Y1610D02*
Y1670D01*
X1598Y1533D02*
X1617D01*
X1619Y1530D01*
X1560Y1570D02*
X1598Y1533D01*
X1560Y1570D02*
Y1670D01*
X1619Y1530D02*
X1670D01*
X1670Y1530D01*
X1662Y1607D02*
X1669Y1600D01*
X1617Y1607D02*
X1662D01*
X1669Y1600D02*
X1670D01*
X1040Y2905D02*
X1113Y2978D01*
X1040Y2562D02*
X1059Y2542D01*
X1040Y2562D02*
Y2905D01*
X1145Y2978D02*
X1154Y2987D01*
X1113Y2978D02*
X1145D01*
X1154Y2987D02*
Y3019D01*
X1059Y2542D02*
X1517D01*
X1154Y3019D02*
X1155Y3020D01*
X1517Y2542D02*
X1520Y2545D01*
D13*
X1520Y1260D02*
D03*
X1480D02*
D03*
X1560Y1670D02*
D03*
X1520D02*
D03*
X2470Y3310D02*
D03*
X2510D02*
D03*
D16*
X1530Y1067D02*
D03*
Y1133D02*
D03*
D20*
Y1330D02*
D03*
Y1370D02*
D03*
X1470Y1130D02*
D03*
Y1090D02*
D03*
X1460Y1530D02*
D03*
Y1570D02*
D03*
X1490Y3070D02*
D03*
Y3110D02*
D03*
X1430Y2970D02*
D03*
Y3010D02*
D03*
X2120Y2640D02*
D03*
Y2600D02*
D03*
D21*
X2285Y1370D02*
D03*
X2340D02*
D03*
X1752Y1383D02*
D03*
X1808D02*
D03*
X1762Y1518D02*
D03*
X1818D02*
D03*
X1762Y1600D02*
D03*
X1818D02*
D03*
X1442Y3250D02*
D03*
X1498D02*
D03*
D22*
X1410Y1567D02*
D03*
Y1533D02*
D03*
X1488Y3002D02*
D03*
Y2968D02*
D03*
D44*
X1241Y3057D02*
Y3187D01*
X1130Y3075D02*
X1241Y3187D01*
X1130Y3020D02*
Y3075D01*
X1532Y1065D02*
X1590D01*
X1530Y1067D02*
X1532Y1065D01*
X1680Y1090D02*
Y1180D01*
X1680Y1180D02*
X1680Y1180D01*
X1400Y3250D02*
X1442D01*
X1258Y3020D02*
Y3173D01*
X1271Y3187D01*
X1232Y3020D02*
Y3048D01*
X1241Y3057D01*
X2510Y3310D02*
Y3383D01*
Y3310D02*
X2510Y3310D01*
X1206Y3020D02*
X1208Y3022D01*
Y3065D01*
X1520Y3150D02*
X1595D01*
X1498Y3172D02*
Y3250D01*
Y3172D02*
X1520Y3150D01*
X1338Y3293D02*
X1537D01*
X1595Y3150D02*
Y3235D01*
X1537Y3293D02*
X1595Y3235D01*
X1334Y3290D02*
X1338Y3293D01*
X1334Y3253D02*
Y3290D01*
X1360Y3200D02*
Y3253D01*
Y3200D02*
X1450Y3110D01*
X1488Y3002D02*
X1490Y3005D01*
Y3070D01*
X1450Y3110D02*
X1490D01*
X1320Y2970D02*
X1336D01*
X1353Y2953D01*
X1367D01*
X1377Y2963D01*
Y2975D01*
X1412Y3010D01*
X1430D01*
X1283Y3020D02*
X1284Y3021D01*
Y3070D01*
X1309Y3020D02*
Y3070D01*
X1360Y2970D02*
X1360Y2970D01*
X1360Y2970D02*
Y3020D01*
X1320Y2970D02*
X1334Y2984D01*
Y3020D01*
D46*
X1309Y3299D02*
X1310Y3300D01*
X1309Y3253D02*
Y3299D01*
D47*
X1911Y3530D02*
D03*
X2129Y1060D02*
D03*
D48*
X1990Y3530D02*
D03*
X2069D02*
D03*
X2510Y3461D02*
D03*
Y3383D02*
D03*
X2050Y1060D02*
D03*
X1971D02*
D03*
X1070Y1310D02*
D03*
Y1231D02*
D03*
D49*
X2510Y3540D02*
D03*
X1070Y1389D02*
D03*
D50*
X1280Y2855D02*
D03*
X1480D02*
D03*
X1680D02*
D03*
X2080D02*
D03*
X2480D02*
D03*
X1880D02*
D03*
X2280D02*
D03*
X1280Y2055D02*
D03*
X1480D02*
D03*
X1680D02*
D03*
X2080D02*
D03*
X2480D02*
D03*
X1880D02*
D03*
X2280D02*
D03*
D51*
X1246Y1351D02*
D03*
X1267Y1592D02*
D03*
X1157Y1522D02*
D03*
X1190Y1430D02*
D03*
X1510Y1180D02*
D03*
X1461Y1606D02*
D03*
X1411Y1596D02*
D03*
X1448Y1448D02*
D03*
X1502Y1216D02*
D03*
X1490Y1360D02*
D03*
X1291Y1083D02*
D03*
X1670Y1600D02*
D03*
Y1530D02*
D03*
X1951Y1288D02*
D03*
Y1345D02*
D03*
X1230Y2752D02*
D03*
X1260D02*
D03*
X1230Y2781D02*
D03*
X1260D02*
D03*
Y2724D02*
D03*
X1230D02*
D03*
X1260Y2695D02*
D03*
X1230D02*
D03*
X1260Y2666D02*
D03*
X1230D02*
D03*
X1260Y2637D02*
D03*
X1230D02*
D03*
X1260Y2609D02*
D03*
X1230D02*
D03*
X1260Y2580D02*
D03*
X1230D02*
D03*
X1609Y1741D02*
D03*
X1569D02*
D03*
X1690Y1380D02*
D03*
X1637D02*
D03*
X1587D02*
D03*
X1736Y1281D02*
D03*
X1699D02*
D03*
X1669D02*
D03*
X1639D02*
D03*
X1723Y1380D02*
D03*
X1715Y1643D02*
D03*
X1699Y1671D02*
D03*
X1689Y1701D02*
D03*
X1659D02*
D03*
X1730Y1539D02*
D03*
Y1569D02*
D03*
Y1599D02*
D03*
Y1507D02*
D03*
X2003Y1140D02*
D03*
X2033D02*
D03*
X1973D02*
D03*
X1943D02*
D03*
X1913D02*
D03*
X1883D02*
D03*
X1853D02*
D03*
X2213D02*
D03*
X2243D02*
D03*
X2183D02*
D03*
X2153D02*
D03*
X2123D02*
D03*
X2093D02*
D03*
X2063D02*
D03*
X2093Y1232D02*
D03*
X2063D02*
D03*
X2123D02*
D03*
X2063Y1202D02*
D03*
Y1172D02*
D03*
X2093D02*
D03*
Y1202D02*
D03*
X2123D02*
D03*
Y1172D02*
D03*
X2153D02*
D03*
X2183D02*
D03*
X2153Y1202D02*
D03*
X2183D02*
D03*
X2153Y1232D02*
D03*
X2183D02*
D03*
X2243D02*
D03*
X2213D02*
D03*
X2243Y1202D02*
D03*
X2213D02*
D03*
X2243Y1172D02*
D03*
X2213D02*
D03*
X1883Y1232D02*
D03*
X1853D02*
D03*
X1913D02*
D03*
X1853Y1202D02*
D03*
Y1172D02*
D03*
X1883D02*
D03*
Y1202D02*
D03*
X1913D02*
D03*
Y1172D02*
D03*
X1943D02*
D03*
X1973D02*
D03*
X1943Y1202D02*
D03*
X1973D02*
D03*
X1943Y1232D02*
D03*
X1973D02*
D03*
X2033D02*
D03*
X2003D02*
D03*
X2033Y1202D02*
D03*
X2003D02*
D03*
X2033Y1172D02*
D03*
X2003D02*
D03*
X2560Y1490D02*
D03*
Y1400D02*
D03*
Y1430D02*
D03*
Y1460D02*
D03*
X2510Y1390D02*
D03*
Y1300D02*
D03*
Y1330D02*
D03*
Y1360D02*
D03*
Y1600D02*
D03*
Y1510D02*
D03*
Y1540D02*
D03*
Y1570D02*
D03*
X1590Y1065D02*
D03*
X1680Y1090D02*
D03*
X1400Y3250D02*
D03*
X1331Y3187D02*
D03*
X1301D02*
D03*
X1271D02*
D03*
X1241D02*
D03*
X1121Y3308D02*
D03*
X1170Y3300D02*
D03*
X1150Y3320D02*
D03*
X2370Y3230D02*
D03*
X2400D02*
D03*
X2370Y3260D02*
D03*
X2400D02*
D03*
X2362Y2983D02*
D03*
Y2953D02*
D03*
X2392D02*
D03*
X2422D02*
D03*
X2392Y2983D02*
D03*
X2422D02*
D03*
X2482D02*
D03*
X2452D02*
D03*
X2482Y2953D02*
D03*
X2452D02*
D03*
X2305Y2954D02*
D03*
X2335D02*
D03*
X2305Y2984D02*
D03*
X2335D02*
D03*
X2275D02*
D03*
X2245D02*
D03*
X2275Y2954D02*
D03*
X2245D02*
D03*
X2215D02*
D03*
Y2984D02*
D03*
X2143Y2781D02*
D03*
Y2751D02*
D03*
Y2721D02*
D03*
X2173D02*
D03*
X2203D02*
D03*
X2173Y2751D02*
D03*
X2203D02*
D03*
X2173Y2781D02*
D03*
X2203D02*
D03*
X2263D02*
D03*
X2233D02*
D03*
X2263Y2751D02*
D03*
X2233D02*
D03*
X2263Y2721D02*
D03*
X2233D02*
D03*
X2380Y2720D02*
D03*
X2410D02*
D03*
X2380Y2750D02*
D03*
X2410D02*
D03*
X2380Y2780D02*
D03*
X2410D02*
D03*
X2350D02*
D03*
X2320D02*
D03*
X2350Y2750D02*
D03*
X2320D02*
D03*
X2350Y2720D02*
D03*
X2320D02*
D03*
X2290D02*
D03*
Y2750D02*
D03*
Y2780D02*
D03*
X2379Y1759D02*
D03*
Y1729D02*
D03*
Y1699D02*
D03*
X2409D02*
D03*
X2439D02*
D03*
X2409Y1729D02*
D03*
X2439D02*
D03*
X2409Y1759D02*
D03*
X2439D02*
D03*
X2499D02*
D03*
X2469D02*
D03*
X2499Y1729D02*
D03*
X2469D02*
D03*
X2499Y1699D02*
D03*
X2469D02*
D03*
X2409Y1849D02*
D03*
Y1819D02*
D03*
Y1789D02*
D03*
X2439D02*
D03*
X2469D02*
D03*
X2439Y1819D02*
D03*
X2469D02*
D03*
X2439Y1849D02*
D03*
X2469D02*
D03*
X2529D02*
D03*
X2499D02*
D03*
X2529Y1819D02*
D03*
X2499D02*
D03*
X2529Y1789D02*
D03*
X2499D02*
D03*
X1974Y1902D02*
D03*
X2004D02*
D03*
X1974Y1932D02*
D03*
X2004D02*
D03*
X1974Y1962D02*
D03*
X2004D02*
D03*
X1944D02*
D03*
X1914D02*
D03*
X1944Y1932D02*
D03*
X1914D02*
D03*
X1944Y1902D02*
D03*
X1914D02*
D03*
X1884D02*
D03*
Y1932D02*
D03*
Y1962D02*
D03*
X2474Y1892D02*
D03*
X2504D02*
D03*
X2474Y1922D02*
D03*
X2504D02*
D03*
X2474Y1952D02*
D03*
X2504D02*
D03*
X2444D02*
D03*
X2414D02*
D03*
X2444Y1922D02*
D03*
X2414D02*
D03*
X2444Y1892D02*
D03*
X2414D02*
D03*
X2384D02*
D03*
Y1922D02*
D03*
Y1952D02*
D03*
X1850Y2140D02*
D03*
Y2170D02*
D03*
Y2200D02*
D03*
X2387Y2199D02*
D03*
Y2169D02*
D03*
Y2139D02*
D03*
X2417D02*
D03*
X2447D02*
D03*
X2417Y2169D02*
D03*
X2447D02*
D03*
X2417Y2199D02*
D03*
X2447D02*
D03*
X2507D02*
D03*
X2477D02*
D03*
X2507Y2169D02*
D03*
X2477D02*
D03*
X2507Y2139D02*
D03*
X2477D02*
D03*
X2330Y2140D02*
D03*
X2360D02*
D03*
X2330Y2170D02*
D03*
X2360D02*
D03*
X2330Y2200D02*
D03*
X2360D02*
D03*
X2300D02*
D03*
X2270D02*
D03*
X2300Y2170D02*
D03*
X2270D02*
D03*
X2300Y2140D02*
D03*
X2270D02*
D03*
X2240D02*
D03*
Y2170D02*
D03*
X2210D02*
D03*
Y2140D02*
D03*
X2240Y2200D02*
D03*
X2210D02*
D03*
X2030D02*
D03*
X2000D02*
D03*
X2060D02*
D03*
X2000Y2170D02*
D03*
Y2140D02*
D03*
X2030D02*
D03*
Y2170D02*
D03*
X2060D02*
D03*
Y2140D02*
D03*
X2090D02*
D03*
X2120D02*
D03*
X2090Y2170D02*
D03*
X2120D02*
D03*
X2090Y2200D02*
D03*
X2120D02*
D03*
X2180D02*
D03*
X2150D02*
D03*
X2180Y2170D02*
D03*
X2150D02*
D03*
X2180Y2140D02*
D03*
X2150D02*
D03*
X1940D02*
D03*
X1970D02*
D03*
X1940Y2170D02*
D03*
X1970D02*
D03*
X1940Y2200D02*
D03*
X1970D02*
D03*
X1910D02*
D03*
Y2170D02*
D03*
Y2140D02*
D03*
X1880D02*
D03*
Y2170D02*
D03*
Y2200D02*
D03*
X1910Y1730D02*
D03*
Y1700D02*
D03*
X1940D02*
D03*
Y1730D02*
D03*
X1970D02*
D03*
X2000D02*
D03*
X1970Y1700D02*
D03*
X2000D02*
D03*
X2030D02*
D03*
Y1730D02*
D03*
X1870Y1620D02*
D03*
Y1590D02*
D03*
Y1560D02*
D03*
X1900D02*
D03*
Y1590D02*
D03*
Y1620D02*
D03*
X1870Y1650D02*
D03*
X1900D02*
D03*
X1960D02*
D03*
X1930D02*
D03*
X1960Y1620D02*
D03*
X1930D02*
D03*
X1960Y1590D02*
D03*
X1930D02*
D03*
X1960Y1560D02*
D03*
X1930D02*
D03*
X2140Y1500D02*
D03*
X2170D02*
D03*
X2140Y1530D02*
D03*
X2170D02*
D03*
X2140Y1560D02*
D03*
X2170D02*
D03*
X2140Y1590D02*
D03*
X2170D02*
D03*
X2140Y1620D02*
D03*
X2170D02*
D03*
X2200D02*
D03*
X2110D02*
D03*
X2080D02*
D03*
X2110Y1590D02*
D03*
X2080D02*
D03*
X2110Y1560D02*
D03*
Y1530D02*
D03*
Y1500D02*
D03*
Y1460D02*
D03*
Y1430D02*
D03*
X2080D02*
D03*
X2050D02*
D03*
X2080Y1460D02*
D03*
X2050D02*
D03*
Y1500D02*
D03*
X2080D02*
D03*
X2050Y1530D02*
D03*
X2080D02*
D03*
Y1560D02*
D03*
X2050D02*
D03*
Y1590D02*
D03*
X2020D02*
D03*
Y1560D02*
D03*
Y1530D02*
D03*
Y1500D02*
D03*
Y1460D02*
D03*
Y1430D02*
D03*
X1990D02*
D03*
Y1460D02*
D03*
Y1500D02*
D03*
Y1530D02*
D03*
Y1560D02*
D03*
Y1590D02*
D03*
X2050Y1680D02*
D03*
Y1650D02*
D03*
Y1620D02*
D03*
X1990D02*
D03*
Y1650D02*
D03*
Y1680D02*
D03*
X2020D02*
D03*
Y1620D02*
D03*
Y1650D02*
D03*
X1130Y3210D02*
D03*
X1208Y3065D02*
D03*
X1650Y2780D02*
D03*
X1910D02*
D03*
X1700D02*
D03*
X1860D02*
D03*
X1750D02*
D03*
X1810D02*
D03*
X1780Y2810D02*
D03*
Y2850D02*
D03*
X1840Y2500D02*
D03*
X1690D02*
D03*
X1740D02*
D03*
X1790D02*
D03*
X1890Y2490D02*
D03*
X1840Y2470D02*
D03*
X1790D02*
D03*
X1740D02*
D03*
X1690D02*
D03*
X1310Y3300D02*
D03*
X1360Y2970D02*
D03*
X1320D02*
D03*
X1284Y3070D02*
D03*
X1309D02*
D03*
D52*
X1341Y1397D02*
D03*
Y1360D02*
D03*
Y1323D02*
D03*
X1439D02*
D03*
Y1360D02*
D03*
Y1397D02*
D03*
D53*
X1370Y1171D02*
D03*
X1333Y1089D02*
D03*
X1407D02*
D03*
D54*
X1523Y1533D02*
D03*
Y1570D02*
D03*
Y1607D02*
D03*
X1617D02*
D03*
Y1533D02*
D03*
D55*
X2338Y3310D02*
D03*
Y3110D02*
D03*
D56*
X2000Y3210D02*
D03*
D57*
X1680Y1180D02*
D03*
D58*
X1620Y1227D02*
D03*
Y1204D02*
D03*
Y1180D02*
D03*
Y1156D02*
D03*
Y1133D02*
D03*
X1740D02*
D03*
Y1156D02*
D03*
Y1180D02*
D03*
Y1204D02*
D03*
Y1227D02*
D03*
D59*
X2050Y1290D02*
D03*
Y1345D02*
D03*
D60*
X2350Y1600D02*
D03*
X2284D02*
D03*
X1746Y1692D02*
D03*
X1812D02*
D03*
X2344Y1520D02*
D03*
X2278D02*
D03*
X1746Y1445D02*
D03*
X1812D02*
D03*
X2253Y2600D02*
D03*
X2187D02*
D03*
D61*
X1811Y1778D02*
D03*
X1705D02*
D03*
X2279Y1439D02*
D03*
X2385D02*
D03*
D62*
X1170Y2700D02*
D03*
X1410D02*
D03*
D63*
X1595Y3150D02*
D03*
Y2990D02*
D03*
X2020Y2470D02*
D03*
Y2630D02*
D03*
D64*
X2165Y1731D02*
D03*
D65*
X2126Y1878D02*
D03*
X2204D02*
D03*
D66*
X2165Y2490D02*
D03*
X2335D02*
D03*
D67*
X1778Y2635D02*
D03*
D68*
X1520Y2725D02*
D03*
Y2545D02*
D03*
D69*
X1245Y3120D02*
D03*
D70*
X1130Y3253D02*
D03*
X1155D02*
D03*
X1181D02*
D03*
X1206D02*
D03*
X1232D02*
D03*
X1258D02*
D03*
X1283D02*
D03*
X1309D02*
D03*
X1334D02*
D03*
X1360D02*
D03*
X1130Y3020D02*
D03*
X1155D02*
D03*
X1181D02*
D03*
X1206D02*
D03*
X1232D02*
D03*
X1258D02*
D03*
X1283D02*
D03*
X1309D02*
D03*
X1334D02*
D03*
X1360D02*
D03*
M02*
